<svg width="8" height="14" viewBox="0 0 8 14" fill="none" xmlns="http://www.w3.org/2000/svg">
<path d="M0.766724 13.0667C0.600057 12.9 0.516724 12.7027 0.516724 12.4747C0.516724 12.2471 0.600057 12.05 0.766724 11.8834L5.65006 7.00002L0.750057 2.10002C0.594501 1.94446 0.516724 1.75002 0.516724 1.51669C0.516724 1.28335 0.600057 1.08335 0.766724 0.916687C0.93339 0.75002 1.13072 0.666687 1.35872 0.666687C1.58628 0.666687 1.78339 0.75002 1.95006 0.916687L7.55006 6.53335C7.61672 6.60002 7.66406 6.67224 7.69206 6.75002C7.71961 6.8278 7.73339 6.91113 7.73339 7.00002C7.73339 7.08891 7.71961 7.17224 7.69206 7.25002C7.66406 7.3278 7.61672 7.40002 7.55006 7.46669L1.93339 13.0834C1.77783 13.2389 1.58628 13.3167 1.35872 13.3167C1.13072 13.3167 0.93339 13.2334 0.766724 13.0667Z" fill="white"/>
</svg>
