<svg width="12" height="12" viewBox="0 0 12 12" fill="none" xmlns="http://www.w3.org/2000/svg">
<path d="M3.66667 7.16666C3.50139 7.16666 3.36275 7.11066 3.25075 6.99866C3.13875 6.88666 3.08295 6.74821 3.08333 6.58332C3.08333 6.41805 3.13933 6.27941 3.25133 6.16741C3.36333 6.05541 3.50178 5.9996 3.66667 5.99999C3.83195 5.99999 3.97058 6.05599 4.08258 6.16799C4.19458 6.27999 4.25039 6.41843 4.25 6.58332C4.25 6.7486 4.194 6.88724 4.082 6.99924C3.97 7.11124 3.83156 7.16705 3.66667 7.16666ZM6 7.16666C5.83472 7.16666 5.69608 7.11066 5.58408 6.99866C5.47208 6.88666 5.41628 6.74821 5.41667 6.58332C5.41667 6.41805 5.47267 6.27941 5.58467 6.16741C5.69667 6.05541 5.83511 5.9996 6 5.99999C6.16528 5.99999 6.30392 6.05599 6.41592 6.16799C6.52792 6.27999 6.58372 6.41843 6.58333 6.58332C6.58333 6.7486 6.52733 6.88724 6.41533 6.99924C6.30333 7.11124 6.16489 7.16705 6 7.16666ZM8.33333 7.16666C8.16806 7.16666 8.02942 7.11066 7.91742 6.99866C7.80542 6.88666 7.74961 6.74821 7.75 6.58332C7.75 6.41805 7.806 6.27941 7.918 6.16741C8.03 6.05541 8.16845 5.9996 8.33333 5.99999C8.49861 5.99999 8.63725 6.05599 8.74925 6.16799C8.86125 6.27999 8.91706 6.41843 8.91667 6.58332C8.91667 6.7486 8.86067 6.88724 8.74867 6.99924C8.63667 7.11124 8.49822 7.16705 8.33333 7.16666ZM1.91667 11.8333C1.59583 11.8333 1.32108 11.719 1.09242 11.4903C0.863751 11.2617 0.749612 10.9871 0.750001 10.6667V2.49999C0.750001 2.17916 0.864334 1.90441 1.093 1.67574C1.32167 1.44707 1.59622 1.33293 1.91667 1.33332H2.5V0.166656H3.66667V1.33332H8.33333V0.166656H9.5V1.33332H10.0833C10.4042 1.33332 10.6789 1.44766 10.9076 1.67632C11.1363 1.90499 11.2504 2.17955 11.25 2.49999V10.6667C11.25 10.9875 11.1357 11.2622 10.907 11.4909C10.6783 11.7196 10.4038 11.8337 10.0833 11.8333H1.91667ZM1.91667 10.6667H10.0833V4.83332H1.91667V10.6667ZM1.91667 3.66666H10.0833V2.49999H1.91667V3.66666Z" fill="#2F2E41"/>
</svg>
