<svg width="47" height="42" viewBox="0 0 47 42" fill="none" xmlns="http://www.w3.org/2000/svg">
<rect width="47" height="42" rx="5" fill="#38B6FF"/>
<path d="M35.2208 29.4495C33.5315 29.4495 32.1572 28.0752 32.1572 26.3863C32.1572 24.6974 33.5315 23.3231 35.2208 23.3231C36.9097 23.3231 38.284 24.6974 38.284 26.3863C38.284 28.0752 36.9097 29.4495 35.2208 29.4495ZM35.2208 24.1676C33.9973 24.1676 33.0017 25.1627 33.0017 26.3863C33.0017 27.6099 33.9968 28.6051 35.2208 28.6051C36.444 28.6051 37.4396 27.6099 37.4396 26.3863C37.4396 25.1627 36.4444 24.1676 35.2208 24.1676Z" fill="#F2F2F2"/>
<path d="M12.2973 29.4495C10.6085 29.4495 9.23413 28.0752 9.23413 26.3863C9.23413 24.6974 10.6085 23.3231 12.2973 23.3231C13.9862 23.3231 15.3605 24.6974 15.3605 26.3863C15.3605 28.0752 13.9862 29.4495 12.2973 29.4495ZM12.2973 24.1676C11.0737 24.1676 10.0786 25.1627 10.0786 26.3863C10.0786 27.6099 11.0737 28.6051 12.2973 28.6051C13.5205 28.6051 14.5161 27.6099 14.5161 26.3863C14.5161 25.1627 13.5205 24.1676 12.2973 24.1676Z" fill="#F2F2F2"/>
<path d="M9.90045 27.9173C9.86625 27.9173 9.83121 27.9131 9.79617 27.9046L4.90899 26.6646C4.28875 26.5071 3.89947 25.8919 4.02276 25.2641L4.72448 21.6997C4.90435 20.7848 5.71205 20.1206 6.64431 20.1206H7.6969C8.32431 20.1206 8.9492 19.9657 9.50441 19.6726L12.1382 18.2823C13.7266 17.4438 15.5151 17.0009 17.3104 17.0009H21.8087C23.4984 17.0009 25.1649 17.4492 26.6266 18.2975L30.1728 20.3554L40.1874 22.3829C41.2375 22.5952 42 23.5275 42 24.5991V26.1301C42 26.8791 41.438 27.5052 40.6928 27.5859L37.6634 27.9148C37.4286 27.9388 37.223 27.7721 37.1977 27.5407C37.1724 27.3085 37.34 27.1003 37.5718 27.075L40.6016 26.7461C40.9179 26.7123 41.1556 26.4471 41.1556 26.1301V24.5991C41.1556 23.9278 40.678 23.3434 40.0202 23.2104L29.9377 21.1694C29.8929 21.1605 29.8494 21.1437 29.8093 21.1209L26.2027 19.0279C24.8698 18.2544 23.3502 17.8453 21.8087 17.8453H17.3104C15.6515 17.8453 13.9993 18.2548 12.5321 19.0292L9.89834 20.4196C9.22237 20.7763 8.46111 20.9651 7.6969 20.9651H6.64431C6.11442 20.9651 5.65547 21.3425 5.55287 21.8627L4.85157 25.4266C4.81484 25.6141 4.93095 25.7986 5.11672 25.8455L10.0039 27.086C10.2298 27.1438 10.3666 27.3735 10.3092 27.5994C10.261 27.7906 10.0888 27.9173 9.90045 27.9173Z" fill="#F2F2F2"/>
<path d="M32.8239 27.9172H14.6947C14.4616 27.9172 14.2725 27.7285 14.2725 27.495C14.2725 27.2615 14.4616 27.0728 14.6947 27.0728H32.8239C33.0574 27.0728 33.2461 27.2615 33.2461 27.495C33.2461 27.7285 33.0569 27.9172 32.8239 27.9172Z" fill="#F2F2F2"/>
<path d="M26.5732 22.0002H14.4661C13.3177 22.0002 12.2064 21.6611 11.2539 21.0194L9.94923 20.1407C9.75586 20.0103 9.70435 19.7481 9.83481 19.5547C9.96528 19.3613 10.2275 19.3098 10.4209 19.4403L11.7255 20.3189C12.5383 20.8661 13.4862 21.1558 14.4661 21.1558H26.5732C27.5447 21.1558 28.4892 20.9598 29.3801 20.5731L29.8534 20.3679C30.0662 20.2754 30.3162 20.3738 30.4082 20.5874C30.5011 20.8015 30.4027 21.0502 30.1887 21.1427L29.7158 21.3479C28.7185 21.7806 27.6609 22.0002 26.5732 22.0002Z" fill="#F2F2F2"/>
<path d="M20.6341 22.0002C20.4403 22.0002 20.2655 21.8659 20.222 21.6687L19.3049 17.5137C19.2547 17.2861 19.3987 17.0606 19.6262 17.0104C19.8525 16.9589 20.0793 17.1041 20.1295 17.3317L21.0466 21.4867C21.0968 21.7143 20.9528 21.9398 20.7253 21.99C20.6953 21.9972 20.6645 22.0002 20.6341 22.0002Z" fill="#F2F2F2"/>
<path d="M35.2188 26.8094C35.1091 26.8094 35.0035 26.763 34.9237 26.6823C34.8811 26.6443 34.8515 26.5983 34.8304 26.5476C34.8093 26.497 34.7966 26.4421 34.7966 26.3872C34.7966 26.3576 34.8013 26.3319 34.8055 26.3027C34.8139 26.277 34.8224 26.2521 34.8308 26.2225C34.8435 26.1972 34.8566 26.1765 34.8688 26.1507C34.8857 26.1296 34.9026 26.1085 34.9241 26.0878C34.9621 26.0494 35.0082 26.0156 35.0588 25.9945C35.215 25.9316 35.405 25.9692 35.519 26.0878C35.5993 26.1638 35.6415 26.2732 35.6415 26.3876C35.6415 26.4425 35.633 26.4974 35.6124 26.548C35.5908 26.5987 35.5575 26.6447 35.519 26.6827C35.481 26.7254 35.435 26.7545 35.3844 26.776C35.329 26.7967 35.2784 26.8094 35.2188 26.8094Z" fill="#F2F2F2"/>
<path d="M12.297 26.8097C12.2421 26.8097 12.1872 26.7971 12.1365 26.776C12.0859 26.7544 12.0394 26.7253 11.9972 26.6826C11.9212 26.6066 11.8748 26.5011 11.8748 26.3875C11.8748 26.328 11.8874 26.2773 11.9085 26.2224C11.9296 26.1718 11.9592 26.1257 11.9972 26.0877C12.1154 25.9695 12.3054 25.9315 12.4574 25.9944C12.5123 26.0155 12.5587 26.0493 12.5967 26.0877C12.6727 26.1675 12.7192 26.2731 12.7192 26.3875C12.7192 26.4973 12.677 26.6028 12.5967 26.6826C12.5165 26.7633 12.411 26.8097 12.297 26.8097Z" fill="#F2F2F2"/>
</svg>
