<svg width="8" height="9" viewBox="0 0 8 9" fill="none" xmlns="http://www.w3.org/2000/svg">
<path d="M0.875 8.05698C0.66875 8.05698 0.492125 7.98348 0.345125 7.83648C0.198375 7.68973 0.125 7.51323 0.125 7.30698V2.05698C0.125 1.85073 0.198375 1.67411 0.345125 1.52711C0.492125 1.38036 0.66875 1.30698 0.875 1.30698H4.22188L3.47188 2.05698H0.875V7.30698H6.125V4.70073L6.875 3.95073V7.30698C6.875 7.51323 6.80163 7.68973 6.65487 7.83648C6.50787 7.98348 6.33125 8.05698 6.125 8.05698H0.875ZM5.06562 1.52261L5.6 2.04761L3.125 4.52261V5.05698H3.65L6.13437 2.57261L6.66875 3.09761L3.96875 5.80698H2.375V4.21323L5.06562 1.52261ZM6.66875 3.09761L5.06562 1.52261L6.00312 0.585107C6.15312 0.435107 6.33288 0.360107 6.54238 0.360107C6.75163 0.360107 6.92812 0.435107 7.07187 0.585107L7.59687 1.11948C7.74062 1.26323 7.8125 1.43823 7.8125 1.64448C7.8125 1.85073 7.74062 2.02573 7.59687 2.16948L6.66875 3.09761Z" fill="#27AE60"/>
</svg>
