<svg width="19" height="14" viewBox="0 0 19 14" fill="none" xmlns="http://www.w3.org/2000/svg">
<path d="M17.0625 0H1.3125C0.964403 0 0.630564 0.138281 0.384422 0.384422C0.138281 0.630564 0 0.964403 0 1.3125V11.8125C0 12.1606 0.138281 12.4944 0.384422 12.7406C0.630564 12.9867 0.964403 13.125 1.3125 13.125H17.0625C17.4106 13.125 17.7444 12.9867 17.9906 12.7406C18.2367 12.4944 18.375 12.1606 18.375 11.8125V1.3125C18.375 0.964403 18.2367 0.630564 17.9906 0.384422C17.7444 0.138281 17.4106 0 17.0625 0ZM15.6187 1.3125L9.1875 5.76187L2.75625 1.3125H15.6187ZM1.3125 11.8125V1.90969L8.81344 7.10063C8.92329 7.17683 9.0538 7.21767 9.1875 7.21767C9.3212 7.21767 9.45171 7.17683 9.56156 7.10063L17.0625 1.90969V11.8125H1.3125Z" fill="#4F4F4F"/>
</svg>
