<svg width="20" height="17" viewBox="0 0 20 17" fill="none" xmlns="http://www.w3.org/2000/svg">
<path d="M10 0L0 9H3V17H17V9H20L10 0ZM7 5H11C11.5304 5 12.0391 5.21071 12.4142 5.58579C12.7893 5.96086 13 6.46957 13 7V8.5C13 8.89782 12.842 9.27936 12.5607 9.56066C12.2794 9.84196 11.8978 10 11.5 10C11.8978 10 12.2794 10.158 12.5607 10.4393C12.842 10.7206 13 11.1022 13 11.5V13C13 13.5304 12.7893 14.0391 12.4142 14.4142C12.0391 14.7893 11.5304 15 11 15H7V5ZM9 7V9H11V7H9ZM9 11V13H11V11H9Z" fill="#4F4F4F"/>
</svg>
