<svg width="7" height="7" viewBox="0 0 7 7" fill="none" xmlns="http://www.w3.org/2000/svg">
<path d="M5.46875 7C5.87486 7 6.26434 6.83867 6.55151 6.55151C6.83867 6.26434 7 5.87486 7 5.46875C7 5.06264 6.83867 4.67316 6.55151 4.38599C6.26434 4.09883 5.87486 3.9375 5.46875 3.9375C5.06264 3.9375 4.67316 4.09883 4.38599 4.38599C4.09883 4.67316 3.9375 5.06264 3.9375 5.46875C3.9375 5.87486 4.09883 6.26434 4.38599 6.55151C4.67316 6.83867 5.06264 7 5.46875 7ZM6.20331 5.03431L5.61925 6.00819C5.59358 6.05097 5.5585 6.08734 5.51666 6.11453C5.47483 6.14172 5.42734 6.159 5.37782 6.16508C5.32829 6.17115 5.27804 6.16585 5.23087 6.14958C5.18371 6.13331 5.14087 6.1065 5.10563 6.07119L4.767 5.733C4.72592 5.69192 4.70285 5.63621 4.70285 5.57812C4.70285 5.52004 4.72592 5.46433 4.767 5.42325C4.80808 5.38217 4.86379 5.3591 4.92188 5.3591C4.97996 5.3591 5.03567 5.38217 5.07675 5.42325L5.31606 5.663L5.82794 4.80944C5.8427 4.78479 5.86218 4.76329 5.88525 4.74617C5.90833 4.72905 5.93455 4.71664 5.96242 4.70965C5.99028 4.70267 6.01926 4.70124 6.04768 4.70545C6.0761 4.70966 6.10342 4.71942 6.12806 4.73419C6.15271 4.74895 6.17421 4.76843 6.19133 4.7915C6.20845 4.81458 6.22086 4.8408 6.22785 4.86867C6.23483 4.89653 6.23626 4.92551 6.23205 4.95393C6.22784 4.98235 6.21808 5.00967 6.20331 5.03431Z" fill="black"/>
<path d="M0.875 0.4375C0.875 0.321468 0.921094 0.210188 1.00314 0.128141C1.08519 0.0460936 1.19647 0 1.3125 0L5.6875 0C5.80353 0 5.91481 0.0460936 5.99686 0.128141C6.07891 0.210188 6.125 0.321468 6.125 0.4375V3.28125C6.125 3.33927 6.10195 3.39491 6.06093 3.43593C6.01991 3.47695 5.96427 3.5 5.90625 3.5C5.84823 3.5 5.79259 3.47695 5.75157 3.43593C5.71055 3.39491 5.6875 3.33927 5.6875 3.28125V0.4375H1.3125V6.5625H2.625V5.46875C2.625 5.41073 2.64805 5.35509 2.68907 5.31407C2.73009 5.27305 2.78573 5.25 2.84375 5.25H3.5V7H1.3125C1.19647 7 1.08519 6.95391 1.00314 6.87186C0.921094 6.78981 0.875 6.67853 0.875 6.5625V0.4375Z" fill="black"/>
<path d="M1.96875 0.875C1.91073 0.875 1.85509 0.898047 1.81407 0.93907C1.77305 0.980094 1.75 1.03573 1.75 1.09375V1.53125C1.75 1.58927 1.77305 1.64491 1.81407 1.68593C1.85509 1.72695 1.91073 1.75 1.96875 1.75H2.40625C2.46427 1.75 2.51991 1.72695 2.56093 1.68593C2.60195 1.64491 2.625 1.58927 2.625 1.53125V1.09375C2.625 1.03573 2.60195 0.980094 2.56093 0.93907C2.51991 0.898047 2.46427 0.875 2.40625 0.875H1.96875ZM3.28125 0.875C3.22323 0.875 3.16759 0.898047 3.12657 0.93907C3.08555 0.980094 3.0625 1.03573 3.0625 1.09375V1.53125C3.0625 1.58927 3.08555 1.64491 3.12657 1.68593C3.16759 1.72695 3.22323 1.75 3.28125 1.75H3.71875C3.77677 1.75 3.83241 1.72695 3.87343 1.68593C3.91445 1.64491 3.9375 1.58927 3.9375 1.53125V1.09375C3.9375 1.03573 3.91445 0.980094 3.87343 0.93907C3.83241 0.898047 3.77677 0.875 3.71875 0.875H3.28125ZM4.59375 0.875C4.53573 0.875 4.48009 0.898047 4.43907 0.93907C4.39805 0.980094 4.375 1.03573 4.375 1.09375V1.53125C4.375 1.58927 4.39805 1.64491 4.43907 1.68593C4.48009 1.72695 4.53573 1.75 4.59375 1.75H5.03125C5.08927 1.75 5.14491 1.72695 5.18593 1.68593C5.22695 1.64491 5.25 1.58927 5.25 1.53125V1.09375C5.25 1.03573 5.22695 0.980094 5.18593 0.93907C5.14491 0.898047 5.08927 0.875 5.03125 0.875H4.59375ZM1.96875 2.1875C1.91073 2.1875 1.85509 2.21055 1.81407 2.25157C1.77305 2.29259 1.75 2.34823 1.75 2.40625V2.84375C1.75 2.90177 1.77305 2.95741 1.81407 2.99843C1.85509 3.03945 1.91073 3.0625 1.96875 3.0625H2.40625C2.46427 3.0625 2.51991 3.03945 2.56093 2.99843C2.60195 2.95741 2.625 2.90177 2.625 2.84375V2.40625C2.625 2.34823 2.60195 2.29259 2.56093 2.25157C2.51991 2.21055 2.46427 2.1875 2.40625 2.1875H1.96875ZM3.28125 2.1875C3.22323 2.1875 3.16759 2.21055 3.12657 2.25157C3.08555 2.29259 3.0625 2.34823 3.0625 2.40625V2.84375C3.0625 2.90177 3.08555 2.95741 3.12657 2.99843C3.16759 3.03945 3.22323 3.0625 3.28125 3.0625H3.71875C3.77677 3.0625 3.83241 3.03945 3.87343 2.99843C3.91445 2.95741 3.9375 2.90177 3.9375 2.84375V2.40625C3.9375 2.34823 3.91445 2.29259 3.87343 2.25157C3.83241 2.21055 3.77677 2.1875 3.71875 2.1875H3.28125ZM4.59375 2.1875C4.53573 2.1875 4.48009 2.21055 4.43907 2.25157C4.39805 2.29259 4.375 2.34823 4.375 2.40625V2.84375C4.375 2.90177 4.39805 2.95741 4.43907 2.99843C4.48009 3.03945 4.53573 3.0625 4.59375 3.0625H5.03125C5.08927 3.0625 5.14491 3.03945 5.18593 2.99843C5.22695 2.95741 5.25 2.90177 5.25 2.84375V2.40625C5.25 2.34823 5.22695 2.29259 5.18593 2.25157C5.14491 2.21055 5.08927 2.1875 5.03125 2.1875H4.59375ZM1.96875 3.5C1.91073 3.5 1.85509 3.52305 1.81407 3.56407C1.77305 3.60509 1.75 3.66073 1.75 3.71875V4.15625C1.75 4.21427 1.77305 4.26991 1.81407 4.31093C1.85509 4.35195 1.91073 4.375 1.96875 4.375H2.40625C2.46427 4.375 2.51991 4.35195 2.56093 4.31093C2.60195 4.26991 2.625 4.21427 2.625 4.15625V3.71875C2.625 3.66073 2.60195 3.60509 2.56093 3.56407C2.51991 3.52305 2.46427 3.5 2.40625 3.5H1.96875ZM3.28125 3.5C3.22323 3.5 3.16759 3.52305 3.12657 3.56407C3.08555 3.60509 3.0625 3.66073 3.0625 3.71875V4.15625C3.0625 4.21427 3.08555 4.26991 3.12657 4.31093C3.16759 4.35195 3.22323 4.375 3.28125 4.375H3.71875C3.77677 4.375 3.83241 4.35195 3.87343 4.31093C3.91445 4.26991 3.9375 4.21427 3.9375 4.15625V3.71875C3.9375 3.66073 3.91445 3.60509 3.87343 3.56407C3.83241 3.52305 3.77677 3.5 3.71875 3.5H3.28125Z" fill="black"/>
</svg>
