<svg width="268" height="304" viewBox="0 0 268 304" fill="none" xmlns="http://www.w3.org/2000/svg">
<g clip-path="url(#clip0_117_278)">
<path d="M172.298 225.072C172.9 225.393 173.586 225.522 174.263 225.441C174.94 225.36 175.575 225.072 176.084 224.618C176.592 224.163 176.948 223.563 177.104 222.9C177.26 222.236 177.208 221.541 176.955 220.908C177.022 220.571 177.071 220.329 177.139 219.992C178.44 218.778 180.074 217.981 181.832 217.701C183.59 217.422 185.391 217.673 187.005 218.423C188.619 219.174 189.972 220.389 190.89 221.912C191.809 223.436 192.251 225.199 192.16 226.976C191.749 236.996 192.244 247.808 185.581 255.885C215.992 231.047 229.858 188.735 220.571 150.679C216.014 144.332 213.888 135.901 215.932 128.261C218.496 130.754 223.495 130.084 222.731 125.769C222.321 124.063 221.897 122.363 221.488 120.657C239.003 113.826 243.576 139.856 222.828 150.455C224.511 157.69 225.433 165.081 225.579 172.508C227.921 165.811 231.82 159.766 236.956 154.869C241.929 150.395 248.504 147.763 254.621 144.761C262.064 141.098 270.325 148.36 267.394 156.112C262.439 155.478 258.933 161.398 263.429 164.579C255.532 177.835 240.39 186.26 225.004 186.394C223.448 201.52 218.685 216.141 211.031 229.282C220.859 214.345 239.88 218.645 254.911 218.009C255.909 217.883 256.921 218.05 257.825 218.49C258.729 218.93 259.485 219.623 260.002 220.484C260.518 221.346 260.773 222.34 260.734 223.344C260.695 224.348 260.365 225.319 259.784 226.138C257.806 226.022 255.822 226.103 253.861 226.379C252.938 226.516 252.08 226.934 251.405 227.577C250.73 228.22 250.27 229.056 250.089 229.97C249.907 230.885 250.013 231.833 250.392 232.685C250.771 233.536 251.405 234.25 252.205 234.728C239.019 246.81 218.587 249.407 202.551 241.697C197.81 247.667 192.461 253.127 186.59 257.991L162.749 246.632C162.79 246.327 162.843 246.017 162.893 245.715C165.033 246.905 167.312 247.829 169.677 248.465C167.133 238.775 164.299 233.099 172.297 225.072H172.298Z" fill="#F2F2F2"/>
<path d="M130.171 202.148C129.735 202.673 129.149 203.05 128.491 203.23C127.833 203.41 127.136 203.384 126.494 203.154C125.852 202.925 125.295 202.504 124.901 201.948C124.506 201.392 124.292 200.729 124.287 200.047C124.097 199.761 123.961 199.555 123.771 199.269C122.108 198.635 120.293 198.512 118.56 198.916C116.826 199.32 115.253 200.232 114.041 201.535C112.83 202.838 112.036 204.474 111.76 206.231C111.484 207.989 111.74 209.788 112.495 211.4C116.657 220.524 120.279 230.724 129.499 235.693C91.9602 224.155 63.1496 190.196 57.3883 151.45C59.2135 143.854 58.0003 135.244 53.2242 128.938C51.79 132.214 46.9074 133.478 45.9862 129.194C45.7221 127.46 45.4732 125.725 45.209 123.991C26.4089 124.268 31.9976 150.1 55.2131 152.093C56.3848 159.428 58.3205 166.621 60.9887 173.554C56.2921 168.235 50.3992 164.106 43.7947 161.508C37.5008 159.238 30.4184 159.28 23.6203 158.806C15.3446 158.22 10.4346 168.059 16.0743 174.134C20.424 171.679 25.905 175.839 22.9413 180.48C35.2581 189.78 52.462 191.874 66.7612 186.198C73.9107 199.62 83.8403 211.365 95.8883 220.65C81.1486 210.521 65.1563 221.675 50.9949 226.752C50.0238 227.012 49.1494 227.548 48.4781 228.296C47.8069 229.044 47.3679 229.971 47.2148 230.964C47.0616 231.957 47.2009 232.973 47.6157 233.888C48.0304 234.804 48.7027 235.578 49.5504 236.118C51.338 235.265 53.206 234.592 55.1268 234.108C56.0328 233.887 56.985 233.951 57.8531 234.292C58.7212 234.633 59.4625 235.234 59.9755 236.012C60.4885 236.791 60.748 237.709 60.7185 238.64C60.689 239.572 60.3719 240.472 59.8106 241.216C76.5823 247.434 96.4855 242.137 108.427 228.951C115.071 232.691 122.086 235.732 129.358 238.023L147.152 218.515C146.998 218.248 146.832 217.981 146.672 217.72C145.139 219.63 143.378 221.344 141.427 222.825C140.126 212.891 140.608 206.566 130.172 202.148L130.171 202.148Z" fill="#F2F2F2"/>
<path d="M134.75 119.718C135.429 119.649 136.07 119.374 136.587 118.929C137.103 118.484 137.471 117.891 137.639 117.231C137.808 116.57 137.769 115.874 137.528 115.236C137.287 114.599 136.856 114.05 136.293 113.666C136.161 113.349 136.067 113.121 135.935 112.803C136.338 111.071 137.25 109.497 138.553 108.286C139.856 107.074 141.492 106.279 143.25 106.003C145.008 105.726 146.809 105.981 148.422 106.734C150.034 107.487 151.385 108.704 152.301 110.23C157.548 118.777 163.991 127.477 162.965 137.895C174.355 100.329 162.263 57.4772 133.324 31.0606C126 28.3314 119.532 22.5168 116.967 15.0354C120.486 15.6758 124.263 12.3341 121.221 9.17728C119.93 7.98983 118.629 6.81462 117.337 5.6271C128.067 -9.80474 146.384 9.25601 135.073 29.6164C140.506 34.6846 145.394 40.3067 149.658 46.3909C147.867 39.5264 147.732 32.335 149.264 25.4082C150.895 18.9226 154.886 13.0742 158.289 7.17333C162.425 -0.015135 173.333 1.40958 175.224 9.47798C170.758 11.7131 171.149 18.5808 176.656 18.7158C177.495 34.1211 169.625 49.554 156.928 58.2386C164.074 71.6623 168.275 86.4542 169.252 101.628C169.079 83.7514 187.267 76.7223 199.391 67.8175C200.149 67.1574 201.082 66.732 202.078 66.5932C203.073 66.4543 204.088 66.6081 204.997 67.0357C205.907 67.4633 206.673 68.1463 207.2 69.0013C207.728 69.8563 207.996 70.8464 207.97 71.8507C206.264 72.8564 204.662 74.029 203.188 75.3512C202.498 75.9787 202.019 76.8041 201.818 77.7142C201.616 78.6243 201.7 79.5745 202.06 80.4346C202.419 81.2947 203.036 82.0226 203.826 82.5185C204.616 83.0144 205.54 83.254 206.471 83.2045C202.265 100.582 186.752 114.124 169.139 116.661C168.533 124.258 167.138 131.771 164.978 139.081L138.85 142.937C138.714 142.661 138.585 142.374 138.458 142.096C140.899 141.891 143.305 141.388 145.624 140.598C138.107 133.971 132.588 130.838 134.75 119.718L134.75 119.718Z" fill="#F2F2F2"/>
<path d="M161.029 111.345C149.134 111.345 142.682 109.892 140.428 106.791C138.44 104.054 139.773 100.444 141.317 96.264C142.426 93.2594 143.683 89.854 143.683 86.4836C143.683 70.0908 151.999 61.7788 168.401 61.7788C176.561 61.7788 185.323 66.1114 191.839 73.3689C197.763 79.9666 200.714 87.863 199.936 95.0331C199.297 100.913 196.559 104.78 191.317 107.204L191.011 107.345L190.924 107.019C190.471 105.331 189.705 103.744 188.665 102.339C188.564 104.544 188.008 106.705 187.032 108.685L186.976 108.798L186.855 108.832C180.923 110.521 173.882 110.979 168.412 111.188C165.749 111.292 163.288 111.344 161.029 111.345Z" fill="#2F2E41"/>
<path d="M164.271 134.185C163.815 132.845 163.046 131.634 162.027 130.651C161.009 129.668 159.771 128.942 158.416 128.533C157.061 128.124 155.628 128.044 154.236 128.299C152.843 128.555 151.532 129.138 150.41 130.002L111.284 153.382L99.0413 123.524C100.076 122.008 100.603 120.203 100.547 118.368C100.492 116.534 99.8563 114.764 98.7322 113.313C97.6082 111.862 96.0531 110.804 94.2901 110.29C92.5272 109.777 90.6468 109.835 88.9188 110.456C87.1908 111.076 85.7039 112.228 84.6713 113.746C83.6388 115.264 83.1137 117.069 83.1713 118.904C83.2289 120.738 83.8662 122.507 84.9919 123.957C86.1177 125.407 87.6739 126.463 89.4374 126.975C90.192 135.585 94.3858 174.068 108.975 172.669C121.238 171.493 151.691 151.222 161.15 144.194C162.664 143.07 163.781 141.496 164.342 139.697C164.903 137.899 164.878 135.968 164.271 134.185Z" fill="#FFB6B6"/>
<path d="M193.755 304H159.701L153.99 275.78L152.138 304H120.505C120.517 281.838 121.672 259.692 123.965 237.649L124.357 236.314L124.977 234.179L125.369 232.839L131.915 210.371L132.432 208.588H171.85C174.118 210.718 176.21 213.027 178.106 215.494C178.748 216.312 179.418 217.198 180.106 218.152C180.583 218.828 181.078 219.538 181.572 220.282C185.964 226.817 189.247 234.032 191.289 241.636V241.642C191.635 242.942 191.942 244.273 192.209 245.634V245.64C192.448 246.849 192.658 248.076 192.823 249.331C192.948 250.246 193.056 251.171 193.135 252.108C193.609 257.3 193.443 262.53 192.641 267.681L193.755 304Z" fill="#2F2E41"/>
<path d="M13.202 45.9571C15.4135 45.1015 16.7235 43.1613 16.128 41.6237C15.5325 40.086 13.2569 39.5332 11.0453 40.3888C8.83381 41.2444 7.52379 43.1846 8.11933 44.7222C8.71486 46.2599 10.9904 46.8128 13.202 45.9571Z" fill="#E6E6E6"/>
<path d="M41.0472 42.387C43.2587 41.5314 44.5687 39.5912 43.9732 38.0536C43.3777 36.5159 41.1021 35.9631 38.8906 36.8187C36.679 37.6743 35.369 39.6145 35.9645 41.1521C36.5601 42.6898 38.8356 43.2427 41.0472 42.387Z" fill="#3F3D56"/>
<path d="M10.7869 69.7011C12.9985 68.8455 14.3085 66.9054 13.713 65.3677C13.1174 63.83 10.8419 63.2772 8.63032 64.1328C6.41878 64.9884 5.10875 66.9286 5.70429 68.4662C6.29982 70.0039 8.57541 70.5568 10.7869 69.7011Z" fill="#FF6584"/>
<path d="M2.73168 80.1747C3.74626 79.9347 4.28891 78.5584 3.94371 77.1008C3.5985 75.6431 2.49616 74.6559 1.48159 74.8959C0.467007 75.136 -0.0756242 76.5122 0.26958 77.9699C0.614785 79.4276 1.71711 80.4148 2.73168 80.1747Z" fill="#E6E6E6"/>
<path d="M2.56616 97.9069C3.58073 97.6669 4.12337 96.2906 3.77816 94.8329C3.43296 93.3752 2.33064 92.3881 1.31606 92.6281C0.30148 92.8681 -0.241152 94.2444 0.104053 95.7021C0.449257 97.1598 1.55158 98.1469 2.56616 97.9069Z" fill="#3F3D56"/>
<path d="M27.0046 61.1794C28.0192 60.9394 28.5618 59.5632 28.2166 58.1055C27.8714 56.6478 26.7691 55.6607 25.7545 55.9007C24.74 56.1407 24.1973 57.5169 24.5425 58.9746C24.8877 60.4323 25.9901 61.4195 27.0046 61.1794Z" fill="#E6E6E6"/>
<path d="M12.3396 57.62C13.3542 57.38 13.8968 56.0038 13.5516 54.5461C13.2064 53.0884 12.1041 52.1012 11.0895 52.3413C10.0749 52.5813 9.53229 53.9575 9.87749 55.4152C10.2227 56.8729 11.325 57.8601 12.3396 57.62Z" fill="#FF6584"/>
<path d="M27.8835 41.2917C28.8981 41.0517 29.4407 39.6754 29.0955 38.2177C28.7503 36.76 27.648 35.7729 26.6334 36.0129C25.6189 36.2529 25.0762 37.6292 25.4214 39.0869C25.7666 40.5446 26.869 41.5317 27.8835 41.2917Z" fill="#3F3D56"/>
<path d="M35.1128 164.019C36.1821 162.764 35.5851 160.501 33.7792 158.964C31.9734 157.428 29.6427 157.2 28.5734 158.456C27.504 159.712 28.1011 161.975 29.9069 163.511C31.7128 165.047 34.0435 165.275 35.1128 164.019Z" fill="#E6E6E6"/>
<path d="M18.7134 141.246C19.7827 139.991 19.1856 137.727 17.3798 136.191C15.574 134.655 13.2432 134.427 12.1739 135.683C11.1046 136.938 11.7017 139.201 13.5075 140.738C15.3134 142.274 17.6441 142.502 18.7134 141.246Z" fill="#3F3D56"/>
<path d="M57.1534 154.836C58.2227 153.581 57.6256 151.317 55.8198 149.781C54.0139 148.245 51.6832 148.017 50.6139 149.273C49.5446 150.528 50.1416 152.792 51.9475 154.328C53.7533 155.864 56.084 156.092 57.1534 154.836Z" fill="#FF6584"/>
<path d="M68.1027 155.088C69.2208 154.09 69.5645 152.651 68.8702 151.874C68.1759 151.097 66.7067 151.275 65.5886 152.272C64.4704 153.27 64.1268 154.709 64.821 155.486C65.5153 156.264 66.9845 156.085 68.1027 155.088Z" fill="#E6E6E6"/>
<path d="M83.7829 146.79C84.901 145.793 85.2447 144.354 84.5504 143.577C83.8561 142.799 82.3869 142.977 81.2687 143.975C80.1506 144.972 79.8069 146.411 80.5012 147.189C81.1955 147.966 82.6647 147.788 83.7829 146.79Z" fill="#3F3D56"/>
<path d="M39.8327 142.799C40.9508 141.801 41.2945 140.362 40.6002 139.585C39.9059 138.807 38.4367 138.986 37.3185 139.983C36.2004 140.981 35.8568 142.42 36.551 143.197C37.2453 143.974 38.7145 143.796 39.8327 142.799Z" fill="#E6E6E6"/>
<path d="M43.6837 157.383C44.8019 156.385 45.1455 154.946 44.4513 154.169C43.757 153.392 42.2878 153.57 41.1696 154.567C40.0515 155.565 39.7078 157.004 40.4021 157.781C41.0963 158.559 42.5656 158.38 43.6837 157.383Z" fill="#FF6584"/>
<path d="M21.9167 151.496C23.0348 150.498 23.3784 149.059 22.6842 148.282C21.9899 147.504 20.5207 147.683 19.4025 148.68C18.2844 149.678 17.9407 151.117 18.635 151.894C19.3293 152.671 20.7985 152.493 21.9167 151.496Z" fill="#3F3D56"/>
<path d="M145.284 17.9596C146.764 17.2319 147.116 14.9178 146.069 12.7909C145.023 10.664 142.974 9.52969 141.494 10.2573C140.014 10.985 139.662 13.2991 140.708 15.426C141.755 17.5529 143.803 18.6872 145.284 17.9596Z" fill="#E6E6E6"/>
<path d="M151.282 45.3702C152.762 44.6425 153.114 42.3284 152.067 40.2015C151.021 38.0746 148.972 36.9403 147.492 37.668C146.012 38.3957 145.66 40.7097 146.706 42.8366C147.753 44.9635 149.802 46.0979 151.282 45.3702Z" fill="#3F3D56"/>
<path d="M121.407 17.6356C122.888 16.9079 123.239 14.5939 122.193 12.467C121.146 10.3401 119.098 9.20573 117.617 9.93339C116.137 10.6611 115.785 12.9752 116.832 15.1021C117.879 17.229 119.927 18.3633 121.407 17.6356Z" fill="#FF6584"/>
<path d="M108.857 8.93693C110.28 8.46551 111.167 7.28152 110.839 6.2924C110.511 5.30328 109.092 4.88359 107.669 5.35501C106.247 5.82643 105.359 7.01043 105.687 7.99955C106.015 8.98867 107.435 9.40834 108.857 8.93693Z" fill="#E6E6E6"/>
<path d="M91.1698 10.3257C92.5924 9.85424 93.4797 8.67024 93.1515 7.68113C92.8234 6.69201 91.4042 6.27233 89.9816 6.74375C88.559 7.21517 87.6718 8.39916 87.9999 9.38827C88.328 10.3774 89.7472 10.7971 91.1698 10.3257Z" fill="#3F3D56"/>
<path d="M129.916 31.4397C131.339 30.9683 132.226 29.7843 131.898 28.7952C131.57 27.8061 130.151 27.3864 128.728 27.8578C127.306 28.3292 126.418 29.5132 126.746 30.5023C127.075 31.4914 128.494 31.9111 129.916 31.4397Z" fill="#E6E6E6"/>
<path d="M132.179 16.5266C133.601 16.0552 134.488 14.8712 134.16 13.8821C133.832 12.893 132.413 12.4733 130.99 12.9447C129.568 13.4161 128.681 14.6001 129.009 15.5892C129.337 16.5784 130.756 16.998 132.179 16.5266Z" fill="#FF6584"/>
<path d="M149.815 30.5722C151.237 30.1008 152.125 28.9168 151.797 27.9276C151.468 26.9385 150.049 26.5188 148.627 26.9903C147.204 27.4617 146.317 28.6457 146.645 29.6348C146.973 30.6239 148.392 31.0436 149.815 30.5722Z" fill="#3F3D56"/>
<path d="M155.276 115.908L174.036 114.942L182.75 128.704C182.75 128.704 199.145 131.444 198.009 150.753C196.872 170.063 178.061 187.007 178.061 187.007L178.865 197.062L177.468 201.051L177.647 203.29L179.553 205.662L179.749 208.115L178.061 211.996L180.356 215.712L132.095 211.038L130.33 204.613L132.904 201.162L131.466 196.662L133.628 192.333L134.755 178.583C134.755 178.583 122.423 160.064 136.58 146.116L142.263 136.461L148.621 128.708L155.276 115.908Z" fill="#38B6FF"/>
<path d="M164.602 112.022C175.581 112.022 184.481 103.127 184.481 92.154C184.481 81.1809 175.581 72.2854 164.602 72.2854C153.623 72.2854 144.723 81.1809 144.723 92.154C144.723 103.127 153.623 112.022 164.602 112.022Z" fill="#FFB6B6"/>
<path d="M161.94 90.9497C160.227 90.9497 158.515 90.9014 156.804 90.8049L156.498 90.7877L156.539 90.4844C156.791 88.5879 156.649 86.6598 156.122 84.8206C155.227 86.9148 153.896 88.7942 152.216 90.3335L152.122 90.4203L151.994 90.4064C147.347 89.8984 142.742 89.0589 138.214 87.8946L138.041 87.8502L138.006 87.675C137.668 86.0153 137.493 84.3266 137.483 82.6329C137.483 77.3422 139.403 72.8891 142.888 70.0942C146.681 67.0518 152.118 66.1162 158.204 67.4581H177.663C179.802 67.4605 181.853 68.3109 183.365 69.8228C184.878 71.3347 185.729 73.3846 185.731 75.5227V87.8388L185.519 87.8943C177.823 89.916 169.898 90.9428 161.94 90.9497Z" fill="#2F2E41"/>
<path d="M26.2979 68.8493C25.4268 69.1678 24.7177 69.8185 24.326 70.6589C23.9344 71.4992 23.8923 72.4606 24.2089 73.3319L45.201 130.902C45.5196 131.773 46.1707 132.482 47.0115 132.873C47.8522 133.264 48.814 133.307 49.6859 132.99L131.16 103.313C132.031 102.995 132.74 102.344 133.132 101.503C133.523 100.663 133.565 99.7018 133.249 98.8304L112.257 41.2602C111.938 40.3896 111.287 39.6808 110.446 39.2893C109.605 38.8979 108.644 38.8558 107.772 39.1722L26.2979 68.8493Z" fill="#CCCCCC"/>
<path d="M100.836 111.184L50.9661 129.35C50.0278 129.69 48.9926 129.645 48.0877 129.224C47.1828 128.802 46.482 128.04 46.1392 127.103L27.0995 74.8869C26.7587 73.949 26.804 72.9144 27.2255 72.0099C27.647 71.1055 28.4103 70.4051 29.3478 70.0624L106.218 42.0622C107.156 41.7216 108.191 41.7669 109.096 42.1882C110.001 42.6095 110.702 43.3724 111.045 44.3095L120.245 69.5396C123.186 77.6349 122.795 86.5658 119.156 94.373C115.518 102.18 108.929 108.226 100.836 111.184Z" fill="white"/>
<path d="M64.9522 73.4629L53.1013 77.7796C52.9527 77.8338 52.7949 77.8581 52.6369 77.8513C52.4788 77.8445 52.3237 77.8066 52.1803 77.7398C52.0369 77.6731 51.9081 77.5788 51.8012 77.4622C51.6943 77.3457 51.6113 77.2093 51.5572 77.0608C51.503 76.9122 51.4787 76.7545 51.4855 76.5965C51.4923 76.4386 51.5302 76.2835 51.597 76.1402C51.6638 75.9969 51.7582 75.8681 51.8748 75.7613C51.9913 75.6544 52.1278 75.5715 52.2765 75.5174L64.1273 71.2007C64.4275 71.0913 64.7588 71.1057 65.0484 71.2405C65.338 71.3753 65.5621 71.6196 65.6715 71.9196C65.7809 72.2196 65.7666 72.5507 65.6317 72.8401C65.4968 73.1296 65.2524 73.3536 64.9522 73.4629H64.9522Z" fill="#38B6FF"/>
<path d="M93.205 68.4125L54.7883 82.406C54.6396 82.4603 54.4817 82.4849 54.3235 82.4782C54.1654 82.4715 54.0101 82.4337 53.8665 82.367C53.723 82.3002 53.594 82.2059 53.487 82.0893C53.3799 81.9727 53.2969 81.8362 53.2427 81.6876C53.1885 81.5389 53.1642 81.381 53.1711 81.223C53.178 81.0649 53.2159 80.9097 53.2829 80.7663C53.3498 80.623 53.4444 80.4942 53.5611 80.3873C53.6779 80.2805 53.8146 80.1977 53.9634 80.1437L92.3801 66.1503C92.5287 66.0962 92.6866 66.0718 92.8446 66.0786C93.0026 66.0855 93.1577 66.1233 93.3011 66.1901C93.4445 66.2569 93.5734 66.3512 93.6803 66.4677C93.7872 66.5842 93.8701 66.7206 93.9243 66.8692C93.9784 67.0177 94.0028 67.1755 93.9959 67.3334C93.9891 67.4914 93.9512 67.6464 93.8844 67.7897C93.8177 67.933 93.7233 68.0618 93.6067 68.1687C93.4901 68.2755 93.3536 68.3584 93.205 68.4125Z" fill="#38B6FF"/>
<path d="M95.1411 73.7229L56.7244 87.7164C56.5758 87.7705 56.4179 87.7948 56.2599 87.788C56.1019 87.7812 55.9467 87.7433 55.8033 87.6765C55.66 87.6098 55.5311 87.5155 55.4242 87.3989C55.3173 87.2824 55.2344 87.146 55.1802 86.9975C55.1261 86.8489 55.1017 86.6912 55.1085 86.5332C55.1154 86.3753 55.1533 86.2202 55.2201 86.0769C55.2869 85.9336 55.3812 85.8048 55.4978 85.698C55.6144 85.5911 55.7509 85.5082 55.8995 85.4541L94.3162 71.4607C94.6162 71.3518 94.9473 71.3664 95.2365 71.5013C95.5258 71.6362 95.7497 71.8803 95.859 72.1801C95.9683 72.4798 95.9541 72.8107 95.8195 73.1C95.6849 73.3893 95.4409 73.6133 95.1411 73.7229Z" fill="#38B6FF"/>
<path d="M97.0776 79.0333L58.6608 93.0267C58.5122 93.0811 58.3542 93.1056 58.1961 93.0989C58.0379 93.0922 57.8826 93.0545 57.7391 92.9877C57.5955 92.921 57.4666 92.8267 57.3595 92.7101C57.2525 92.5935 57.1695 92.457 57.1153 92.3083C57.0611 92.1597 57.0367 92.0018 57.0436 91.8437C57.0505 91.6857 57.0885 91.5305 57.1554 91.3871C57.2224 91.2437 57.3169 91.1149 57.4337 91.0081C57.5505 90.9013 57.6871 90.8185 57.8359 90.7645L96.2526 76.7711C96.4013 76.7169 96.5591 76.6926 96.7171 76.6994C96.8752 76.7062 97.0303 76.7441 97.1737 76.8109C97.3171 76.8776 97.4459 76.9719 97.5528 77.0885C97.6597 77.205 97.7427 77.3414 97.7968 77.49C97.851 77.6385 97.8753 77.7962 97.8685 77.9542C97.8617 78.1121 97.8238 78.2672 97.757 78.4105C97.6902 78.5538 97.5958 78.6826 97.4792 78.7894C97.3627 78.8963 97.2262 78.9792 97.0776 79.0333Z" fill="#38B6FF"/>
<path d="M99.0142 84.3437L60.5974 98.3371C60.2973 98.4464 59.966 98.4321 59.6764 98.2973C59.3868 98.1625 59.1627 97.9182 59.0533 97.6182C58.9439 97.3182 58.9582 96.9871 59.0931 96.6977C59.228 96.4082 59.4724 96.1842 59.7725 96.0749L98.1893 82.0814C98.3379 82.0273 98.4957 82.003 98.6538 82.0098C98.8118 82.0166 98.9669 82.0545 99.1103 82.1213C99.2537 82.188 99.3825 82.2823 99.4895 82.3989C99.5964 82.5154 99.6793 82.6518 99.7334 82.8003C99.7876 82.9489 99.812 83.1066 99.8051 83.2646C99.7983 83.4225 99.7604 83.5776 99.6936 83.7209C99.6268 83.8642 99.5324 83.993 99.4159 84.0998C99.2993 84.2067 99.1628 84.2896 99.0141 84.3437H99.0142Z" fill="#38B6FF"/>
<path d="M220.91 99.0918L199.877 149.399C198.979 151.528 197.281 153.218 195.147 154.106C193.013 154.994 190.616 155.008 188.472 154.144C187.363 153.698 186.357 153.03 185.514 152.182C184.672 151.334 184.011 150.324 183.572 149.212C183.133 148.101 182.926 146.911 182.962 145.717C182.997 144.522 183.276 143.348 183.781 142.265L207.233 90.6773L220.161 58.7306C219.044 57.617 218.297 56.1867 218.021 54.6339C217.746 53.0812 217.955 51.4814 218.621 50.0517C219.287 48.6221 220.377 47.4321 221.743 46.6432C223.11 45.8544 224.686 45.505 226.257 45.6426C227.829 45.7802 229.32 46.3981 230.529 47.4122C231.737 48.4264 232.603 49.7878 233.01 51.3113C233.418 52.8349 233.346 54.4467 232.804 55.928C232.263 57.4092 231.278 58.688 229.985 59.5905L220.91 99.0918Z" fill="#FFB6B6"/>
</g>
<defs>
<clipPath id="clip0_117_278">
<rect width="268" height="304" fill="white"/>
</clipPath>
</defs>
</svg>
