<svg width="357" height="200" viewBox="0 0 357 200" fill="none" xmlns="http://www.w3.org/2000/svg">
<path d="M247.593 63.4599H240.807C240.589 63.4606 240.379 63.3799 240.218 63.2336C240.057 63.0873 239.956 62.8859 239.935 62.6691L238.577 48.7427H249.822L248.464 62.6689C248.444 62.8858 248.343 63.0872 248.182 63.2335C248.02 63.3799 247.81 63.4606 247.593 63.4599Z" fill="#E6E6E6"/>
<path d="M249.804 50.4947H238.595C238.363 50.4944 238.14 50.4021 237.976 50.2378C237.812 50.0736 237.72 49.8509 237.719 49.6187V47.5162C237.72 47.284 237.812 47.0613 237.976 46.8971C238.14 46.7328 238.363 46.6405 238.595 46.6402H249.804C250.036 46.6405 250.259 46.7328 250.423 46.8971C250.587 47.0613 250.68 47.284 250.68 47.5162V49.6187C250.68 49.8509 250.587 50.0736 250.423 50.2378C250.259 50.402 250.036 50.4944 249.804 50.4947Z" fill="#CCCCCC"/>
<path d="M168.203 48.4994H141.321V40.3361C149.816 34.4227 157.342 34.9367 167.243 40.8163L168.203 48.4994Z" fill="#6C63FF"/>
<path d="M135.096 193.497L129.211 193.496L128.331 170.789L135.097 170.789L135.096 193.497Z" fill="#FFB8B8"/>
<path d="M136.597 199.203L117.621 199.202V198.962C117.621 197.992 117.812 197.031 118.183 196.135C118.554 195.239 119.099 194.424 119.784 193.738C120.47 193.052 121.284 192.508 122.181 192.136C123.077 191.765 124.037 191.574 125.007 191.574H125.008L136.597 191.574L136.597 199.203Z" fill="#2F2E41"/>
<path d="M168.244 193.497L174.129 193.496L175.009 170.789L168.243 170.789L168.244 193.497Z" fill="#FFB8B8"/>
<path d="M166.743 191.574L178.332 191.574H178.333C179.303 191.574 180.263 191.765 181.159 192.136C182.056 192.508 182.87 193.052 183.556 193.738C184.241 194.424 184.785 195.238 185.157 196.135C185.528 197.031 185.719 197.992 185.719 198.962V199.202L166.743 199.203L166.743 191.574Z" fill="#2F2E41"/>
<path d="M168.398 190.586C167.907 190.585 167.431 190.417 167.048 190.109C166.665 189.802 166.398 189.374 166.289 188.895L151.703 125.251C151.671 125.089 151.583 124.944 151.454 124.841C151.326 124.737 151.165 124.683 151 124.687H150.996C150.831 124.684 150.67 124.74 150.541 124.844C150.413 124.948 150.326 125.095 150.295 125.258L136.9 188.473C136.796 188.956 136.529 189.39 136.145 189.701C135.761 190.013 135.282 190.183 134.787 190.185H128.406C128.112 190.185 127.821 190.125 127.55 190.008C127.28 189.892 127.036 189.721 126.834 189.507C126.632 189.292 126.476 189.039 126.376 188.762C126.275 188.485 126.232 188.191 126.25 187.897L131.003 107.774L132.915 107.208L132.951 107.209L170.517 107.537L178.518 187.572C178.546 187.857 178.517 188.146 178.432 188.42C178.348 188.694 178.209 188.948 178.025 189.168C177.841 189.388 177.616 189.569 177.361 189.701C177.106 189.833 176.828 189.912 176.542 189.935L168.572 190.579C168.514 190.584 168.456 190.586 168.398 190.586Z" fill="#2F2E41"/>
<path d="M152.885 33.8688C159.397 33.8688 164.675 28.5885 164.675 22.0748C164.675 15.5612 159.397 10.2808 152.885 10.2808C146.374 10.2808 141.095 15.5612 141.095 22.0748C141.095 28.5885 146.374 33.8688 152.885 33.8688Z" fill="#FFB8B8"/>
<path d="M145.663 116.559C143.594 116.585 141.534 116.294 139.553 115.699C137.791 115.167 136.157 114.281 134.75 113.094C133.344 111.906 132.195 110.444 131.374 108.796C131.114 108.3 131.057 107.723 131.214 107.185C132.514 102.746 138.797 79.6699 134.788 61.3255C134.222 58.7772 134.175 56.1409 134.65 53.574C135.125 51.007 136.111 48.562 137.551 46.3847C138.957 44.2245 140.784 42.3698 142.922 40.9311C145.06 39.4924 147.466 38.4993 149.997 38.0109L149.997 38.0104C150.662 37.8805 151.33 37.7741 151.984 37.6934C154.781 37.349 157.619 37.6273 160.296 38.5084C162.973 39.3894 165.422 40.8514 167.468 42.7898C169.575 44.7663 171.219 47.1843 172.283 49.8707C173.346 52.5571 173.803 55.4454 173.62 58.329L170.539 107.791C170.518 108.161 170.4 108.52 170.199 108.832C169.997 109.144 169.717 109.398 169.388 109.569C165.839 111.429 155.179 116.559 145.663 116.559Z" fill="#3F3D56"/>
<path d="M166.204 13.3934C164.98 10.3144 162.736 7.7488 159.849 6.12475C156.961 4.50071 153.604 3.9165 150.338 4.46963L154.056 7.47458C149.437 7.63016 144.575 7.29935 141.277 10.5379C142.327 10.5087 143.703 12.7551 144.753 12.7259C142.79 12.7648 141.011 14.1444 140.144 15.9064C139.341 17.7166 139.153 19.7401 139.609 21.6673C139.996 23.5925 142.954 28.1026 143.75 29.8978C143.613 25.2063 152.846 14.0157 157.355 15.1836C155.064 16.0338 153.076 17.5435 151.642 19.5223C154.709 17.9738 158.178 17.406 161.579 17.8958C162.356 18.0739 163.157 18.1188 163.948 18.0285C164.433 17.9325 164.886 17.7137 165.262 17.393C165.638 17.0723 165.926 16.6604 166.098 16.1966C166.27 15.7328 166.321 15.2327 166.244 14.7439C166.168 14.2552 165.968 13.7942 165.663 13.405L166.204 13.3934Z" fill="#2F2E41"/>
<path d="M144.85 113.589C144.552 113.588 144.258 113.526 143.985 113.406L121.616 103.639C121.14 103.435 120.755 103.067 120.53 102.601C120.304 102.135 120.255 101.604 120.39 101.105L135.199 45.1439C135.474 44.1026 135.954 43.1268 136.611 42.2734C137.268 41.42 138.089 40.7063 139.025 40.1741C139.961 39.6418 140.994 39.3016 142.063 39.1736C143.132 39.0455 144.216 39.132 145.251 39.428L151.172 41.1186L147.004 111.553C146.982 111.901 146.878 112.238 146.698 112.537C146.519 112.835 146.271 113.086 145.974 113.268C145.636 113.477 145.247 113.588 144.85 113.589Z" fill="#38B6FF"/>
<path d="M186.252 101.104L185.268 97.3926L183.842 91.9952L183.155 89.407L181.73 84.024L171.443 45.1429C171.168 44.1011 170.689 43.1247 170.032 42.2709C169.375 41.4171 168.555 40.7032 167.618 40.1709C166.682 39.6386 165.649 39.2988 164.58 39.1713C163.51 39.0438 162.426 39.1313 161.391 39.4286L155.472 41.1188L158.405 90.6603L158.708 95.8319L158.9 99.0924V99.0972L159.207 104.24L159.639 111.553C159.674 112.103 159.916 112.618 160.316 112.996C160.716 113.373 161.244 113.586 161.794 113.589C162.092 113.588 162.386 113.526 162.658 113.407L185.028 103.64C185.503 103.436 185.889 103.067 186.114 102.601C186.339 102.135 186.388 101.604 186.252 101.104Z" fill="#38B6FF"/>
<path d="M183.156 89.407L158.708 95.8319L158.405 90.6603L181.73 84.024L183.156 89.407Z" fill="#CCCCCC"/>
<path d="M185.267 97.3926L159.207 104.24L158.9 99.0972V99.0924L183.842 91.9952L185.267 97.3926Z" fill="#CCCCCC"/>
<path d="M147.936 91.7743L147.633 96.8499L123.656 89.7047L125.062 84.3938L147.936 91.7743Z" fill="#CCCCCC"/>
<path d="M147.437 100.192L122.969 92.2929L121.563 97.6182L147.139 105.239L147.437 100.192Z" fill="#CCCCCC"/>
<path d="M123.396 105.5C124.126 105.31 124.804 104.962 125.385 104.48C125.965 103.999 126.433 103.396 126.756 102.715C127.078 102.033 127.247 101.289 127.251 100.535C127.254 99.7804 127.093 99.0346 126.777 98.3497L138.28 62.2269L130.123 60.5181L119.578 95.9338C118.463 96.5403 117.609 97.535 117.178 98.7293C116.747 99.9235 116.769 101.234 117.239 102.414C117.71 103.593 118.597 104.558 119.731 105.127C120.866 105.696 122.17 105.829 123.396 105.5Z" fill="#FFB8B8"/>
<path d="M138.599 44.4685C140.941 44.7075 142.258 47.3418 141.676 50.6218L138.882 66.3617C138.672 67.5416 137.701 68.4758 136.895 68.2741L127.443 65.9106C126.715 65.7287 126.447 64.695 126.86 63.6607L132.534 49.4214C133.766 46.329 136.328 44.2368 138.599 44.4685Z" fill="#3F3D56"/>
<path d="M152.842 2.70883e-10C156.832 0.000428132 160.666 1.55442 163.531 4.33292C166.395 7.11141 168.067 10.8962 168.191 14.886H171.083C171.338 14.886 171.582 14.9872 171.762 15.1673C171.942 15.3474 172.043 15.5916 172.043 15.8463V19.6879C172.043 19.9426 171.942 20.1868 171.762 20.367C171.582 20.5471 171.338 20.6483 171.083 20.6483H138.441C138.186 20.6483 137.942 20.5471 137.762 20.367C137.582 20.1868 137.481 19.9426 137.481 19.6879V15.3661C137.481 13.3482 137.878 11.3501 138.65 9.48574C139.422 7.62143 140.554 5.92748 141.98 4.50061C143.406 3.07373 145.1 1.94186 146.964 1.16965C148.827 0.397432 150.825 -1.19812e-05 152.842 2.70883e-10Z" fill="#38B6FF"/>
<path d="M154.678 94.9843H147.892C147.674 94.985 147.464 94.9043 147.303 94.758C147.142 94.6117 147.041 94.4103 147.02 94.1935L145.662 80.2671H156.907L155.549 94.1933C155.529 94.4102 155.428 94.6116 155.267 94.7579C155.105 94.9043 154.895 94.985 154.678 94.9843Z" fill="#E6E6E6"/>
<path d="M156.889 82.0191H145.68C145.448 82.0189 145.225 81.9265 145.061 81.7623C144.897 81.598 144.804 81.3754 144.804 81.1431V79.0406C144.804 78.8084 144.897 78.5857 145.061 78.4215C145.225 78.2573 145.448 78.1649 145.68 78.1646H156.889C157.121 78.1649 157.344 78.2573 157.508 78.4215C157.672 78.5857 157.765 78.8084 157.765 79.0406V81.1431C157.765 81.3754 157.672 81.598 157.508 81.7623C157.344 81.9265 157.121 82.0189 156.889 82.0191Z" fill="#CCCCCC"/>
<path d="M151.43 87.5157C151.694 87.5462 151.955 87.5975 152.211 87.669L170.282 72.1664L169.226 66.4784L177.599 63.7617L180.447 73.6495C180.677 74.4483 180.642 75.3002 180.347 76.0773C180.052 76.8544 179.513 77.5148 178.811 77.9593L155.924 92.4469C155.94 93.4704 155.644 94.4746 155.076 95.3258C154.508 96.1771 153.694 96.8352 152.743 97.2125C151.792 97.5898 150.748 97.6685 149.751 97.4381C148.754 97.2077 147.851 96.6791 147.162 95.9227C146.472 95.1662 146.03 94.2177 145.892 93.2034C145.755 92.189 145.93 91.1569 146.393 90.2443C146.856 89.3316 147.586 88.5817 148.486 88.0943C149.386 87.6069 150.413 87.4051 151.43 87.5157V87.5157Z" fill="#FFB8B8"/>
<path d="M170.329 45.7687C172.831 45.0681 175.331 46.9729 176.168 50.2181L180.188 65.7908C180.489 66.9581 179.904 68.1987 178.99 68.3302L168.282 69.8709C167.458 69.9895 166.732 69.1442 166.702 68.0311L166.286 52.7066C166.196 49.3786 167.904 46.4479 170.329 45.7687Z" fill="#3F3D56"/>
<path d="M314.258 145.244C309.328 138.684 305.43 131.407 302.701 123.668C302.543 123.205 302.554 122.701 302.732 122.245C302.911 121.79 303.245 121.413 303.676 121.181L320.547 112.138C320.82 111.991 321.123 111.907 321.433 111.895C321.743 111.882 322.051 111.941 322.335 112.065C322.624 112.191 322.881 112.381 323.086 112.621C323.291 112.861 323.438 113.145 323.517 113.45C325.48 120.908 329.171 127.799 334.291 133.566C334.502 133.801 334.657 134.08 334.743 134.384C334.829 134.687 334.845 135.006 334.79 135.317C334.736 135.622 334.614 135.912 334.432 136.163C334.25 136.414 334.013 136.62 333.739 136.766L316.868 145.809C316.436 146.039 315.937 146.109 315.459 146.005C314.981 145.902 314.555 145.632 314.258 145.244Z" fill="#CCCCCC"/>
<path d="M315.409 144.378C315.5 144.492 315.627 144.57 315.769 144.599C315.911 144.628 316.059 144.607 316.188 144.539L333.058 135.496C333.14 135.454 333.211 135.392 333.266 135.318C333.32 135.243 333.356 135.157 333.372 135.065C333.389 134.969 333.384 134.87 333.357 134.776C333.33 134.682 333.282 134.596 333.216 134.524C327.945 128.588 324.145 121.494 322.124 113.816C322.1 113.721 322.055 113.633 321.992 113.558C321.929 113.483 321.85 113.425 321.76 113.386C321.675 113.348 321.583 113.33 321.491 113.334C321.398 113.338 321.308 113.363 321.227 113.408L304.356 122.451C304.228 122.52 304.129 122.631 304.074 122.766C304.02 122.901 304.015 123.05 304.059 123.189C306.739 130.79 310.567 137.936 315.409 144.378V144.378Z" fill="white"/>
<path d="M321.655 125.043L312.466 129.1C312.117 129.254 311.721 129.263 311.365 129.125C311.008 128.987 310.722 128.714 310.567 128.364L310.34 127.849C310.186 127.5 310.177 127.103 310.315 126.747C310.453 126.391 310.727 126.104 311.076 125.95L320.264 121.892C320.614 121.738 321.01 121.729 321.366 121.867C321.722 122.005 322.009 122.279 322.163 122.628L322.391 123.143C322.544 123.493 322.553 123.889 322.415 124.245C322.277 124.602 322.004 124.888 321.655 125.043Z" fill="#CCCCCC"/>
<path d="M325.015 131.285L315.826 135.343C315.477 135.497 315.08 135.506 314.724 135.368C314.368 135.23 314.082 134.956 313.927 134.607L313.7 134.092C313.546 133.742 313.537 133.346 313.675 132.99C313.813 132.634 314.087 132.347 314.436 132.192L323.624 128.135C323.974 127.981 324.37 127.972 324.726 128.11C325.082 128.248 325.369 128.522 325.523 128.871L325.75 129.386C325.904 129.735 325.913 130.132 325.775 130.488C325.637 130.844 325.364 131.131 325.015 131.285Z" fill="#CCCCCC"/>
<path d="M303.465 126.084C302.831 125.676 302.294 125.134 301.892 124.496C301.49 123.858 301.232 123.139 301.138 122.391C301.044 121.643 301.115 120.883 301.345 120.165C301.576 119.447 301.962 118.789 302.475 118.236L298.6 63.2263L309.762 64.3092L310.068 118.18C310.94 119.104 311.442 120.315 311.48 121.584C311.518 122.853 311.09 124.092 310.276 125.066C309.462 126.04 308.319 126.682 307.063 126.87C305.808 127.057 304.528 126.778 303.465 126.084L303.465 126.084Z" fill="#A0616A"/>
<path d="M301.126 81.7103C300.865 81.5223 300.649 81.2779 300.495 80.9953C300.34 80.7127 300.251 80.399 300.234 80.0773L299.416 65.2509C299.335 63.782 299.801 62.3351 300.723 61.1892C301.646 60.0434 302.959 59.2797 304.411 59.0455C305.863 58.8112 307.35 59.123 308.586 59.9206C309.822 60.7183 310.718 61.9454 311.103 63.3653L314.696 76.6209C314.845 77.174 314.769 77.7638 314.484 78.2608C314.199 78.7577 313.729 79.1214 313.177 79.2719L302.956 82.0439C302.646 82.1287 302.32 82.1428 302.004 82.0851C301.687 82.0274 301.387 81.8993 301.126 81.7103Z" fill="#3F3D56"/>
<path d="M282.102 193.713H276.217L273.417 171.006H282.103L282.102 193.713Z" fill="#A0616A"/>
<path d="M272.013 192.031H283.363V199.18H264.867C264.867 198.241 265.052 197.311 265.411 196.444C265.77 195.577 266.297 194.789 266.96 194.125C267.624 193.461 268.412 192.934 269.279 192.575C270.146 192.216 271.075 192.031 272.013 192.031Z" fill="#2F2E41"/>
<path d="M304.183 193.713H298.298L295.499 171.006H304.184L304.183 193.713Z" fill="#A0616A"/>
<path d="M294.095 192.031H305.445V199.18H286.949C286.949 198.241 287.134 197.311 287.493 196.444C287.852 195.577 288.378 194.789 289.042 194.125C289.705 193.461 290.493 192.934 291.36 192.575C292.227 192.216 293.156 192.031 294.095 192.031Z" fill="#2F2E41"/>
<path d="M281.824 182.274L275.346 181.965C274.794 181.939 274.273 181.702 273.89 181.303C273.508 180.905 273.292 180.374 273.288 179.822C271.58 153.45 269.215 125.172 272.836 114.248C272.834 113.937 272.899 113.629 273.027 113.345C273.155 113.062 273.343 112.809 273.577 112.604C273.812 112.4 274.088 112.248 274.386 112.16C274.685 112.072 274.999 112.05 275.307 112.095L301.225 115.858C301.737 115.93 302.206 116.184 302.546 116.574C302.886 116.964 303.074 117.463 303.075 117.981C306.384 130.915 306.534 154.371 306.408 178.741C306.411 179.026 306.356 179.309 306.249 179.573C306.141 179.837 305.982 180.077 305.782 180.28C305.581 180.482 305.342 180.643 305.079 180.753C304.816 180.862 304.533 180.919 304.248 180.919H297.264C296.749 180.921 296.25 180.738 295.858 180.403C295.466 180.068 295.208 179.603 295.13 179.094L290.821 151.69C290.758 151.289 290.552 150.925 290.241 150.664C289.93 150.403 289.536 150.263 289.13 150.271C288.724 150.278 288.335 150.432 288.034 150.704C287.733 150.977 287.541 151.349 287.493 151.752L284.072 180.372C284.008 180.897 283.754 181.379 283.359 181.73C282.964 182.081 282.455 182.275 281.927 182.277C281.893 182.277 281.859 182.276 281.824 182.274Z" fill="#2F2E41"/>
<path d="M286.385 117.983C280.673 114.809 276.209 113.975 274.058 113.76C273.772 113.732 273.494 113.647 273.242 113.509C272.99 113.371 272.769 113.183 272.592 112.956C272.411 112.729 272.278 112.466 272.201 112.186C272.124 111.905 272.105 111.611 272.145 111.323L278.355 65.2003C278.713 62.502 279.755 59.9401 281.382 57.7584C283.009 55.5767 285.167 53.8477 287.65 52.736C290.054 51.6304 292.701 51.1586 295.339 51.3655C297.977 51.5723 300.518 52.4509 302.721 53.9177C302.934 54.0593 303.143 54.2039 303.348 54.3515C305.884 56.2106 307.814 58.7793 308.893 61.7337C309.973 64.6881 310.154 67.8961 309.413 70.9533C305.605 86.538 304.297 112.088 304.073 117.051C304.056 117.474 303.913 117.883 303.664 118.225C303.415 118.567 303.07 118.828 302.673 118.974C300.329 119.826 297.857 120.267 295.364 120.276C292.224 120.295 289.132 119.506 286.385 117.983Z" fill="#3F3D56"/>
<path d="M291.58 46.4734C298.091 46.4734 303.37 41.193 303.37 34.6794C303.37 28.1657 298.091 22.8853 291.58 22.8853C285.068 22.8853 279.79 28.1657 279.79 34.6794C279.79 41.193 285.068 46.4734 291.58 46.4734Z" fill="#A0616A"/>
<path d="M299.923 44.0102C297.723 46.354 293.638 45.0958 293.352 41.894C293.329 41.6454 293.331 41.3952 293.357 41.1469C293.505 39.7286 294.324 38.441 294.128 36.9435C294.083 36.5708 293.944 36.2156 293.724 35.9116C291.972 33.5638 287.857 36.9617 286.203 34.8363C285.189 33.5331 286.381 31.4812 285.603 30.0246C284.575 28.1021 281.533 29.0504 279.624 27.9976C277.501 26.8262 277.628 23.5677 279.026 21.5857C280.73 19.1686 283.719 17.8789 286.67 17.693C289.621 17.5071 292.551 18.3051 295.306 19.3792C298.437 20.5995 301.541 22.286 303.467 25.0395C305.81 28.3879 306.035 32.8896 304.864 36.805C304.151 39.1868 301.719 42.0963 299.923 44.0102Z" fill="#2F2E41"/>
<path d="M309.26 55.4766C309.053 54.5066 307.282 53.1813 304.748 52.1008C300.674 50.4502 296.267 49.7856 291.888 50.1611C287.509 50.5366 283.28 51.9416 279.546 54.2617C279.285 54.2757 279.037 54.375 278.838 54.5441C278.64 54.7133 278.502 54.9431 278.447 55.1981L269.921 92.9172L268.812 97.8295L268.078 101.08L266.969 105.978L266.379 108.595C266.341 108.763 266.339 108.936 266.374 109.104C266.409 109.272 266.479 109.431 266.58 109.569C266.681 109.708 266.81 109.824 266.959 109.908C267.108 109.993 267.274 110.045 267.444 110.06L304.258 113.239C304.291 113.239 304.33 113.244 304.363 113.244C304.667 113.242 304.959 113.125 305.18 112.916C305.401 112.708 305.534 112.423 305.554 112.12L305.904 106.785L306.279 101.08L306.442 98.6075L306.812 92.9172L309.264 55.539V55.5054L309.26 55.4766Z" fill="#38B6FF"/>
<path d="M248.855 57.8509C248.914 58.11 248.952 58.3733 248.97 58.6384L269.591 70.5386L274.603 67.6522L279.946 74.6496L269.224 82.2946L245.698 63.7291C244.739 64.0842 243.694 64.1388 242.703 63.8855C241.712 63.6321 240.821 63.0829 240.149 62.3109C239.478 61.5389 239.057 60.5806 238.943 59.5636C238.829 58.5465 239.027 57.5188 239.511 56.6173C239.996 55.7157 240.743 54.9829 241.653 54.5164C242.564 54.0499 243.595 53.8717 244.609 54.0056C245.623 54.1395 246.573 54.5792 247.331 55.266C248.09 55.9529 248.621 56.8545 248.855 57.8509H248.855Z" fill="#A0616A"/>
<path d="M270.327 69.5266C270.293 69.2064 270.331 68.8825 270.438 68.5789C270.546 68.2752 270.72 67.9996 270.948 67.7723L281.443 57.2712C282.483 56.2309 283.871 55.6125 285.34 55.5354C286.808 55.4582 288.253 55.9277 289.396 56.8533C290.54 57.7789 291.3 59.0951 291.53 60.5481C291.76 62.0011 291.445 63.4879 290.644 64.722L283.17 76.2429C282.858 76.7231 282.368 77.0598 281.808 77.1791C281.248 77.2983 280.663 77.1905 280.182 76.8792L271.3 71.1128C271.029 70.938 270.802 70.7047 270.633 70.4302C270.465 70.1557 270.36 69.8469 270.327 69.5266Z" fill="#3F3D56"/>
<path d="M306.811 92.9172L306.442 98.6074L268.812 97.8295L269.921 92.9172H306.811Z" fill="#CCCCCC"/>
<path d="M306.279 101.08L305.904 106.785L266.969 105.978L268.078 101.08H306.279Z" fill="#CCCCCC"/>
<path d="M291.811 11.7647C287.82 11.7651 283.987 13.3191 281.122 16.0976C278.257 18.8761 276.586 22.661 276.462 26.6507H273.569C273.315 26.6507 273.071 26.7519 272.891 26.932C272.711 27.1121 272.609 27.3563 272.609 27.611V31.4526C272.609 31.7073 272.711 31.9516 272.891 32.1317C273.071 32.3118 273.315 32.413 273.569 32.413H306.211C306.466 32.413 306.71 32.3118 306.89 32.1317C307.07 31.9516 307.172 31.7073 307.172 31.4526V27.1308C307.172 25.1129 306.774 23.1148 306.002 21.2505C305.23 19.3861 304.099 17.6922 302.672 16.2653C301.246 14.8384 299.553 13.7066 297.689 12.9344C295.825 12.1621 293.828 11.7647 291.811 11.7647Z" fill="#38B6FF"/>
<path d="M81.898 145.438C78.8599 146.507 75.598 146.774 72.4266 146.215C69.2551 145.657 66.281 144.29 63.7907 142.248C57.4486 136.923 55.4601 128.15 53.8422 120.027L49.0566 96L59.0756 102.901C66.2807 107.864 73.6481 112.986 78.6369 120.174C83.6257 127.363 85.8033 137.175 81.7949 144.954" fill="#E6E6E6"/>
<path d="M81.0416 174.528C82.0557 167.139 83.0984 159.655 82.3871 152.187C81.7554 145.554 79.7326 139.076 75.6144 133.765C73.4285 130.951 70.7687 128.539 67.7545 126.64C66.9685 126.143 66.2451 127.39 67.0276 127.884C72.2431 131.181 76.277 136.05 78.5478 141.788C81.0559 148.17 81.4587 155.126 81.0265 161.905C80.7651 166.005 80.2112 170.077 79.653 174.145C79.609 174.329 79.6364 174.522 79.7298 174.687C79.8231 174.851 79.9754 174.974 80.1559 175.031C80.34 175.08 80.5362 175.055 80.702 174.961C80.8679 174.867 80.9899 174.711 81.0416 174.528Z" fill="#F2F2F2"/>
<path d="M71.2745 161.453C69.9715 163.434 68.1805 165.046 66.074 166.133C63.9675 167.221 61.6165 167.747 59.2475 167.662C53.1592 167.373 48.0835 163.122 43.5144 159.087L30 147.151L38.9443 146.723C45.3765 146.415 51.9747 146.127 58.1011 148.112C64.2276 150.096 69.8778 154.871 70.998 161.215" fill="#E6E6E6"/>
<path d="M83.9077 178.775C79.0269 170.136 73.3656 160.535 63.2497 157.466C60.437 156.615 57.4877 156.311 54.5607 156.568C53.6381 156.648 53.8685 158.07 54.7894 157.991C59.6958 157.583 64.5927 158.879 68.6557 161.661C72.5655 164.323 75.6097 168.024 78.1863 171.949C79.7646 174.353 81.1782 176.859 82.5922 179.362C83.0441 180.162 84.3648 179.584 83.9077 178.775Z" fill="#F2F2F2"/>
<path d="M356.571 200H51.4286C51.3149 200 51.2059 199.947 51.1255 199.854C51.0452 199.76 51 199.633 51 199.5C51 199.367 51.0452 199.24 51.1255 199.146C51.2059 199.053 51.3149 199 51.4286 199H356.571C356.685 199 356.794 199.053 356.874 199.146C356.955 199.24 357 199.367 357 199.5C357 199.633 356.955 199.76 356.874 199.854C356.794 199.947 356.685 200 356.571 200Z" fill="#CCCCCC"/>
</svg>
