<svg width="18" height="18" viewBox="0 0 18 18" fill="none" xmlns="http://www.w3.org/2000/svg">
<g clip-path="url(#clip0_111_46)">
<path d="M11.25 0.84375H0.5625V11.5312H6.75V17.4375H17.4375V6.75H11.25V0.84375ZM5.21385 3.375L3.44858 8.41289H4.64062L4.92771 7.59375H6.75V10.4062H1.6875V1.96875H10.125V6.75H7.7812L6.59883 3.375H5.21385ZM6.49062 6.46875H5.32188L5.90625 4.80101L6.49062 6.46875ZM16.3125 7.875V16.3125H7.875V7.875H16.3125Z" fill="#333333"/>
<path d="M11.1597 12.9544C11.2673 13.1272 11.3858 13.293 11.5144 13.4508C11.1066 13.6707 10.6435 13.7809 10.125 13.7812V14.9062C10.9737 14.9062 11.732 14.681 12.375 14.2445C13.018 14.681 13.7763 14.9062 14.625 14.9062V13.7812C14.1076 13.7812 13.6445 13.671 13.2356 13.4505C13.3642 13.2928 13.4827 13.1271 13.5903 12.9544C13.9145 12.4272 14.153 11.8519 14.2967 11.25H14.9062V10.125H12.9375V9.28125H11.8125V10.125H9.84375V11.25H10.4533C10.597 11.8519 10.8355 12.4272 11.1597 12.9544ZM13.1319 11.25C13.0155 11.6393 12.8489 12.0119 12.6362 12.3581C12.5567 12.4858 12.4695 12.6085 12.375 12.7254C12.2874 12.6171 12.206 12.5038 12.1314 12.3861C11.91 12.0322 11.7374 11.65 11.6179 11.25H13.1319Z" fill="#333333"/>
</g>
<defs>
<clipPath id="clip0_111_46">
<rect width="18" height="18" fill="white"/>
</clipPath>
</defs>
</svg>
