<svg width="15" height="16" viewBox="0 0 15 16" fill="none" xmlns="http://www.w3.org/2000/svg">
<path d="M12.6845 6.08334H2.60112C1.80557 6.08334 1.16064 6.7176 1.16064 7.5V13.1667C1.16064 13.9491 1.80557 14.5833 2.60112 14.5833H12.6845C13.48 14.5833 14.1249 13.9491 14.1249 13.1667V7.5C14.1249 6.7176 13.48 6.08334 12.6845 6.08334Z" stroke="#4F4F4F" stroke-linecap="round" stroke-linejoin="round"/>
<path d="M3.32129 3.25C3.32129 2.68641 3.54894 2.14591 3.95415 1.7474C4.35936 1.34888 4.90895 1.125 5.482 1.125H9.80343C10.3765 1.125 10.9261 1.34888 11.3313 1.7474C11.7365 2.14591 11.9641 2.68641 11.9641 3.25V6.08333H3.32129V3.25Z" stroke="#4F4F4F" stroke-linecap="round" stroke-linejoin="round"/>
</svg>
