<svg width="13" height="14" viewBox="0 0 13 14" fill="none" xmlns="http://www.w3.org/2000/svg">
<path d="M10.875 3.75H9.625C9.625 2.025 8.225 0.625 6.5 0.625C4.775 0.625 3.375 2.025 3.375 3.75H2.125C1.4375 3.75 0.875 4.3125 0.875 5V12.5C0.875 13.1875 1.4375 13.75 2.125 13.75H10.875C11.5625 13.75 12.125 13.1875 12.125 12.5V5C12.125 4.3125 11.5625 3.75 10.875 3.75ZM6.5 1.875C7.5375 1.875 8.375 2.7125 8.375 3.75H4.625C4.625 2.7125 5.4625 1.875 6.5 1.875ZM10.875 12.5H2.125V5H10.875V12.5ZM6.5 7.5C5.4625 7.5 4.625 6.6625 4.625 5.625H3.375C3.375 7.35 4.775 8.75 6.5 8.75C8.225 8.75 9.625 7.35 9.625 5.625H8.375C8.375 6.6625 7.5375 7.5 6.5 7.5Z" fill="#4F4F4F"/>
</svg>
