<svg width="11" height="10" viewBox="0 0 11 10" fill="none" xmlns="http://www.w3.org/2000/svg">
<path d="M5.51817 -1.44736L4.36775 7.15256e-06H6.65942L5.51817 -1.44736ZM1.83317 1.1579V8.68422H9.1665V1.1579H1.83317ZM5.49984 -2.89473L7.7915 7.15256e-06H9.1665C9.40962 7.15256e-06 9.64278 0.121999 9.81468 0.339147C9.98659 0.556294 10.0832 0.850809 10.0832 1.1579V8.68422C10.0832 8.99131 9.98659 9.28583 9.81468 9.50297C9.64278 9.72012 9.40962 9.84211 9.1665 9.84211H1.83317C1.59006 9.84211 1.3569 9.72012 1.18499 9.50297C1.01308 9.28583 0.916504 8.99131 0.916504 8.68422V1.1579C0.916504 0.850809 1.01308 0.556294 1.18499 0.339147C1.3569 0.121999 1.59006 7.15256e-06 1.83317 7.15256e-06H3.20817L5.49984 -2.89473ZM3.20817 7.52632V5.21053H5.49984V7.52632H3.20817ZM6.4165 6.94738V2.89474H8.24984V6.94738H6.4165ZM2.74984 4.05264V2.3158H5.0415V4.05264H2.74984Z" fill="black"/>
</svg>
