<svg width="30" height="29" viewBox="0 0 30 29" fill="none" xmlns="http://www.w3.org/2000/svg">
<path d="M25.8 2.60001V0.200012H4.2V2.60001H0V28.4H2.4V5.00001H4.2V7.40001H25.8V5.00001H27.6V28.4H30V2.60001H25.8ZM25.2312 16.4L21.3162 9.72501C21.1608 9.43641 20.7702 9.20001 20.4486 9.20001H9.5508C9.2292 9.20001 8.8386 9.43641 8.6838 9.72501L4.7694 16.4C4.1262 16.4 3.6 16.94 3.6 17.6V23.6C3.6 24.26 4.1262 24.8 4.7694 24.8H6V26.6C6 27.59 6.7278 28.4 7.692 28.4H8.277C9.2412 28.4 10.2 27.59 10.2 26.6V24.8H19.8V26.6C19.8 27.59 20.7582 28.4 21.723 28.4H22.308C23.2722 28.4 24 27.59 24 26.6V24.8H25.2312C25.8738 24.8 26.4 24.26 26.4 23.6V17.6C26.4 16.94 25.8738 16.4 25.2312 16.4ZM6.8154 21.2C6.0084 21.2 5.3538 20.5286 5.3538 19.7C5.3538 18.8714 6.0084 18.2 6.8154 18.2C7.623 18.2 8.277 18.8714 8.277 19.7C8.277 20.5286 7.623 21.2 6.8154 21.2ZM7.692 16.4L10.3536 11.5364C10.4976 11.2412 10.8786 11 11.1996 11H18.7998C19.1214 11 19.5024 11.2412 19.6458 11.5364L22.308 16.4H7.692ZM23.1846 21.2C22.3776 21.2 21.723 20.5286 21.723 19.7C21.723 18.8714 22.3776 18.2 23.1846 18.2C23.9922 18.2 24.6468 18.8714 24.6468 19.7C24.6468 20.5286 23.9916 21.2 23.1846 21.2Z" fill="#38B6FF"/>
</svg>
