<svg width="10" height="10" viewBox="0 0 10 10" fill="none" xmlns="http://www.w3.org/2000/svg">
<path fill-rule="evenodd" clip-rule="evenodd" d="M5.00016 0.833328C7.30141 0.833328 9.16683 2.69875 9.16683 4.99999C9.16683 7.30124 7.30141 9.16666 5.00016 9.16666C2.69891 9.16666 0.833496 7.30124 0.833496 4.99999C0.833496 2.69875 2.69891 0.833328 5.00016 0.833328ZM5.00016 1.66666C4.11611 1.66666 3.26826 2.01785 2.64314 2.64297C2.01802 3.26809 1.66683 4.11594 1.66683 4.99999C1.66683 5.88405 2.01802 6.7319 2.64314 7.35702C3.26826 7.98214 4.11611 8.33333 5.00016 8.33333C5.88422 8.33333 6.73206 7.98214 7.35719 7.35702C7.98231 6.7319 8.3335 5.88405 8.3335 4.99999C8.3335 4.11594 7.98231 3.26809 7.35719 2.64297C6.73206 2.01785 5.88422 1.66666 5.00016 1.66666ZM5.62516 2.91666C6.00537 2.91611 6.37076 3.06407 6.64347 3.32901C6.91617 3.59395 7.07462 3.95491 7.08505 4.33498C7.09548 4.71505 6.95707 5.08416 6.69931 5.36366C6.44155 5.64316 6.08483 5.81094 5.70516 5.83124L5.62516 5.83333H4.5835V6.66666C4.58338 6.77286 4.54271 6.87501 4.46981 6.95223C4.39691 7.02945 4.29727 7.07593 4.19125 7.08215C4.08523 7.08837 3.98084 7.05388 3.8994 6.98572C3.81796 6.91756 3.76562 6.82087 3.75308 6.71541L3.75016 6.66666V3.74999C3.7501 3.53975 3.8295 3.33726 3.97245 3.1831C4.11541 3.02894 4.31135 2.93451 4.521 2.91874L4.5835 2.91666H5.62516ZM5.62516 3.74999H4.5835V4.99999H5.62516C5.78567 4.99992 5.93999 4.93809 6.05616 4.82732C6.17232 4.71656 6.24142 4.56535 6.24913 4.40503C6.25684 4.24471 6.20258 4.08756 6.09759 3.96616C5.9926 3.84476 5.84492 3.7684 5.68516 3.75291L5.62516 3.74999Z" fill="black"/>
</svg>
