<svg width="15" height="13" viewBox="0 0 15 13" fill="none" xmlns="http://www.w3.org/2000/svg">
<path d="M11.6587 1.71872C11.5488 1.4081 11.3453 1.13919 11.0762 0.948997C10.8071 0.758802 10.4857 0.656677 10.1562 0.656677C9.82675 0.656677 9.50536 0.758802 9.23629 0.948997C8.96723 1.13919 8.76373 1.4081 8.65381 1.71872H0.59375V2.78122H8.65381C8.76373 3.09184 8.96723 3.36076 9.23629 3.55095C9.50536 3.74114 9.82675 3.84327 10.1562 3.84327C10.4857 3.84327 10.8071 3.74114 11.0762 3.55095C11.3453 3.36076 11.5488 3.09184 11.6587 2.78122H14.4062V1.71872H11.6587ZM4.84375 4.90622C4.5143 4.90669 4.19306 5.00905 3.92408 5.19928C3.6551 5.3895 3.45154 5.65826 3.34131 5.96872H0.59375V7.03122H3.34131C3.45123 7.34184 3.65473 7.61075 3.92379 7.80095C4.19286 7.99114 4.51425 8.09327 4.84375 8.09327C5.17325 8.09327 5.49464 7.99114 5.76371 7.80095C6.03277 7.61075 6.23627 7.34184 6.34619 7.03122H14.4062V5.96872H6.34619C6.23596 5.65826 6.0324 5.3895 5.76342 5.19928C5.49444 5.00905 5.1732 4.90669 4.84375 4.90622ZM10.1562 9.15622C9.8268 9.15669 9.50556 9.25905 9.23658 9.44927C8.9676 9.63949 8.76404 9.90826 8.65381 10.2187H0.59375V11.2812H8.65381C8.76373 11.5918 8.96723 11.8608 9.23629 12.0509C9.50536 12.2411 9.82675 12.3433 10.1562 12.3433C10.4857 12.3433 10.8071 12.2411 11.0762 12.0509C11.3453 11.8608 11.5488 11.5918 11.6587 11.2812H14.4062V10.2187H11.6587C11.5485 9.90826 11.3449 9.63949 11.0759 9.44927C10.8069 9.25905 10.4857 9.15669 10.1562 9.15622Z" fill="#828282"/>
</svg>
