<svg width="28" height="9" viewBox="0 0 28 9" fill="none" xmlns="http://www.w3.org/2000/svg">
<path d="M22.5705 8.99998C21.3492 8.99998 20.3557 8.00644 20.3557 6.78551C20.3557 5.56458 21.3492 4.57104 22.5705 4.57104C23.7914 4.57104 24.7849 5.56458 24.7849 6.78551C24.7849 8.00644 23.7914 8.99998 22.5705 8.99998ZM22.5705 5.18151C21.6859 5.18151 20.9662 5.90095 20.9662 6.78551C20.9662 7.67008 21.6856 8.38951 22.5705 8.38951C23.4547 8.38951 24.1745 7.67008 24.1745 6.78551C24.1745 5.90095 23.455 5.18151 22.5705 5.18151Z" fill="white"/>
<path d="M5.99846 8.99998C4.77753 8.99998 3.784 8.00644 3.784 6.78551C3.784 5.56458 4.77753 4.57104 5.99846 4.57104C7.21939 4.57104 8.21293 5.56458 8.21293 6.78551C8.21293 8.00644 7.21939 8.99998 5.99846 8.99998ZM5.99846 5.18151C5.1139 5.18151 4.39446 5.90095 4.39446 6.78551C4.39446 7.67008 5.1139 8.38951 5.99846 8.38951C6.88272 8.38951 7.60246 7.67008 7.60246 6.78551C7.60246 5.90095 6.88272 5.18151 5.99846 5.18151Z" fill="white"/>
<path d="M4.2656 7.89229C4.24088 7.89229 4.21554 7.88923 4.19021 7.88313L0.657135 6.98666C0.208748 6.87281 -0.0726768 6.42808 0.0164512 5.9742L0.523748 3.39743C0.653778 2.73599 1.23769 2.25585 1.91164 2.25585H2.67259C3.12616 2.25585 3.57791 2.14383 3.97929 1.932L5.88333 0.92687C7.03162 0.320678 8.32459 0.000488281 9.62244 0.000488281H12.8744C14.0959 0.000488281 15.3007 0.324645 16.3574 0.937858L18.9211 2.42556L26.1609 3.89129C26.92 4.04483 27.4712 4.71878 27.4712 5.49346V6.60024C27.4712 7.14172 27.065 7.59438 26.5262 7.65268L24.3362 7.89046C24.1665 7.90785 24.0178 7.78729 23.9995 7.62002C23.9812 7.45214 24.1024 7.30166 24.27 7.28335L26.4603 7.04557C26.6889 7.02115 26.8608 6.82947 26.8608 6.60024V5.49346C26.8608 5.00814 26.5156 4.5857 26.04 4.48955L18.751 3.01405C18.7187 3.00764 18.6872 2.99543 18.6582 2.97895L16.0509 1.46591C15.0873 0.906725 13.9888 0.610954 12.8744 0.610954H9.62244C8.42318 0.610954 7.2288 0.90703 6.16812 1.46683L4.26407 2.47196C3.7754 2.72988 3.22506 2.86632 2.67259 2.86632H1.91164C1.52858 2.86632 1.19679 3.1392 1.12262 3.51525L0.615624 6.09172C0.589068 6.22724 0.673007 6.36063 0.80731 6.39451L4.34038 7.29128C4.50368 7.3331 4.60258 7.49915 4.56107 7.66245C4.52627 7.80072 4.40173 7.89229 4.2656 7.89229Z" fill="white"/>
<path d="M20.8377 7.89245H7.73156C7.56307 7.89245 7.42633 7.75601 7.42633 7.58722C7.42633 7.41842 7.56307 7.28198 7.73156 7.28198H20.8377C21.0064 7.28198 21.1429 7.41842 21.1429 7.58722C21.1429 7.75601 21.0061 7.89245 20.8377 7.89245Z" fill="white"/>
<path d="M16.3187 3.61468H7.56613C6.7359 3.61468 5.93252 3.36958 5.24392 2.90562L4.30075 2.27043C4.16095 2.17611 4.12371 1.98657 4.21803 1.84677C4.31235 1.70697 4.5019 1.66973 4.64169 1.76405L5.58486 2.39924C6.17244 2.79482 6.85768 3.00421 7.56613 3.00421H16.3187C17.021 3.00421 17.7038 2.86258 18.3479 2.58299L18.69 2.43465C18.8439 2.3678 19.0246 2.43892 19.0911 2.59337C19.1583 2.74812 19.0871 2.9279 18.9324 2.99475L18.5905 3.14309C17.8696 3.45596 17.105 3.61468 16.3187 3.61468Z" fill="white"/>
<path d="M12.0253 3.61475C11.8852 3.61475 11.7588 3.51769 11.7274 3.37514L11.0644 0.371346C11.0281 0.206826 11.1322 0.0438316 11.2967 0.00750886C11.4603 -0.0297296 11.6242 0.0752705 11.6605 0.239791L12.3235 3.24359C12.3598 3.40811 12.2557 3.5711 12.0912 3.60743C12.0696 3.61262 12.0473 3.61475 12.0253 3.61475Z" fill="white"/>
<path d="M22.5688 7.09137C22.4895 7.09137 22.4132 7.0578 22.3555 6.9995C22.3247 6.97203 22.3033 6.93876 22.288 6.90213C22.2728 6.8655 22.2636 6.82582 22.2636 6.78614C22.2636 6.76478 22.267 6.74616 22.27 6.72509C22.2761 6.70648 22.2822 6.68847 22.2883 6.6671C22.2975 6.64879 22.307 6.63383 22.3158 6.61521C22.328 6.59995 22.3402 6.58469 22.3558 6.56973C22.3833 6.54195 22.4165 6.51754 22.4532 6.50227C22.5661 6.4568 22.7035 6.48396 22.7859 6.56973C22.8439 6.62467 22.8744 6.70373 22.8744 6.78645C22.8744 6.82613 22.8683 6.86581 22.8533 6.90243C22.8378 6.93906 22.8136 6.97233 22.7859 6.9998C22.7584 7.03063 22.7251 7.05169 22.6885 7.06726C22.6485 7.08222 22.6119 7.09137 22.5688 7.09137Z" fill="white"/>
<path d="M5.99804 7.09162C5.95836 7.09162 5.91868 7.08246 5.88205 7.0672C5.84543 7.05163 5.81185 7.03057 5.78133 6.99974C5.72639 6.9448 5.69281 6.86849 5.69281 6.78638C5.69281 6.74335 5.70197 6.70672 5.71723 6.66704C5.73249 6.63041 5.75386 6.59714 5.78133 6.56967C5.86679 6.4842 6.00415 6.45673 6.11403 6.50221C6.15371 6.51747 6.18729 6.54189 6.21476 6.56967C6.2697 6.62736 6.30328 6.70366 6.30328 6.78638C6.30328 6.86574 6.27275 6.94205 6.21476 6.99974C6.15676 7.05804 6.08046 7.09162 5.99804 7.09162Z" fill="white"/>
</svg>
