<svg width="24" height="20" viewBox="0 0 24 20" fill="none" xmlns="http://www.w3.org/2000/svg">
<path d="M0.333344 19.3334V7.66675C0.333344 7.02508 0.56201 6.47558 1.01934 6.01825C1.4759 5.56169 2.02501 5.33341 2.66668 5.33341H6.16668V3.00008C6.16668 2.35841 6.39534 1.8093 6.85268 1.35275C7.30923 0.895415 7.85834 0.666748 8.50001 0.666748H15.5C16.1417 0.666748 16.6912 0.895415 17.1485 1.35275C17.6051 1.8093 17.8333 2.35841 17.8333 3.00008V5.33341H21.3333C21.975 5.33341 22.5245 5.56169 22.9818 6.01825C23.4384 6.47558 23.6667 7.02508 23.6667 7.66675V19.3334H0.333344ZM2.66668 17.0001H21.3333V13.5001H19V14.6667H16.6667V13.5001H7.33334V14.6667H5.00001V13.5001H2.66668V17.0001ZM2.66668 7.66675V11.1667H5.00001V10.0001H7.33334V11.1667H16.6667V10.0001H19V11.1667H21.3333V7.66675H2.66668ZM8.50001 5.33341H15.5V3.00008H8.50001V5.33341Z" fill="white"/>
</svg>
