<svg width="89" height="29" viewBox="0 0 89 29" fill="none" xmlns="http://www.w3.org/2000/svg">
<path d="M72.7271 29C68.792 29 65.5906 25.7986 65.5906 21.8645C65.5906 17.9303 68.792 14.7289 72.7271 14.7289C76.6612 14.7289 79.8626 17.9303 79.8626 21.8645C79.8626 25.7986 76.6612 29 72.7271 29ZM72.7271 16.696C69.8768 16.696 67.5577 19.0142 67.5577 21.8645C67.5577 24.7147 69.8758 27.0329 72.7271 27.0329C75.5764 27.0329 77.8955 24.7147 77.8955 21.8645C77.8955 19.0142 75.5774 16.696 72.7271 16.696Z" fill="black"/>
<path d="M19.3283 29C15.3941 29 12.1927 25.7986 12.1927 21.8645C12.1927 17.9303 15.3941 14.7289 19.3283 14.7289C23.2624 14.7289 26.4638 17.9303 26.4638 21.8645C26.4638 25.7986 23.2624 29 19.3283 29ZM19.3283 16.696C16.478 16.696 14.1598 19.0142 14.1598 21.8645C14.1598 24.7147 16.478 27.0329 19.3283 27.0329C22.1776 27.0329 24.4967 24.7147 24.4967 21.8645C24.4967 19.0142 22.1776 16.696 19.3283 16.696Z" fill="black"/>
<path d="M13.7447 25.431C13.6651 25.431 13.5834 25.4211 13.5018 25.4015L2.11744 22.5128C0.672634 22.146 -0.234181 20.713 0.0530096 19.2505L1.68764 10.9475C2.10662 8.81618 3.98812 7.26908 6.15975 7.26908H8.6117C10.0732 7.26908 11.5288 6.90812 12.8222 6.22555L18.9575 2.98679C22.6575 1.03349 26.8237 0.00177002 31.0057 0.00177002H41.4842C45.4203 0.00177002 49.3023 1.04628 52.7073 3.02219L60.968 7.81592L84.2964 12.5388C86.7424 13.0336 88.5187 15.2052 88.5187 17.7014V21.2677C88.5187 23.0125 87.2096 24.471 85.4737 24.6589L78.4168 25.4251C77.87 25.4811 77.391 25.0926 77.332 24.5537C77.273 24.0127 77.6634 23.5278 78.2034 23.4688L85.2612 22.7026C85.9979 22.624 86.5516 22.0063 86.5516 21.2677V17.7014C86.5516 16.1376 85.4392 14.7764 83.9069 14.4666L60.4202 9.71217C60.3159 9.69152 60.2146 9.65217 60.1212 9.59906L51.7199 4.7237C48.6148 2.92187 45.0751 1.96883 41.4842 1.96883H31.0057C27.1414 1.96883 23.2929 2.92286 19.8751 4.72665L13.7398 7.96542C12.1652 8.7965 10.3919 9.23614 8.6117 9.23614H6.15975C4.92542 9.23614 3.85632 10.1154 3.61733 11.3271L1.98368 19.6291C1.89811 20.0658 2.16858 20.4956 2.60134 20.6048L13.9857 23.4944C14.5119 23.6291 14.8306 24.1642 14.6968 24.6904C14.5847 25.1359 14.1834 25.431 13.7447 25.431Z" fill="black"/>
<path d="M67.1436 25.4307H24.9127C24.3698 25.4307 23.9292 24.9911 23.9292 24.4472C23.9292 23.9033 24.3698 23.4637 24.9127 23.4637H67.1436C67.6875 23.4637 68.1271 23.9033 68.1271 24.4472C68.1271 24.9911 67.6865 25.4307 67.1436 25.4307Z" fill="black"/>
<path d="M52.5824 11.6476H24.3797C21.7045 11.6476 19.1158 10.8578 16.897 9.36282L13.8579 7.31609C13.4074 7.01218 13.2874 6.40141 13.5913 5.95095C13.8952 5.50049 14.506 5.3805 14.9565 5.68441L17.9956 7.73114C19.8889 9.0058 22.0969 9.6805 24.3797 9.6805H52.5824C54.8455 9.6805 57.0457 9.22414 59.121 8.32323L60.2235 7.84523C60.7192 7.62984 61.3014 7.859 61.5158 8.35667C61.7322 8.85532 61.5031 9.43462 61.0044 9.65001L59.9029 10.128C57.5798 11.1361 55.116 11.6476 52.5824 11.6476Z" fill="black"/>
<path d="M38.7481 11.6476C38.2966 11.6476 37.8894 11.3348 37.7881 10.8755L35.6519 1.19656C35.5349 0.66644 35.8702 0.141235 36.4004 0.0241953C36.9275 -0.0957955 37.4557 0.242539 37.5727 0.772662L39.709 10.4516C39.826 10.9817 39.4906 11.5069 38.9605 11.624C38.8907 11.6407 38.8189 11.6476 38.7481 11.6476Z" fill="black"/>
<path d="M72.7222 22.851C72.4665 22.851 72.2206 22.7428 72.0347 22.5549C71.9354 22.4664 71.8665 22.3592 71.8173 22.2412C71.7682 22.1232 71.7387 21.9953 71.7387 21.8675C71.7387 21.7986 71.7495 21.7386 71.7593 21.6707C71.779 21.6108 71.7987 21.5527 71.8183 21.4839C71.8478 21.4249 71.8783 21.3767 71.9068 21.3167C71.9462 21.2675 71.9855 21.2183 72.0357 21.1701C72.1242 21.0806 72.2314 21.0019 72.3494 20.9528C72.7133 20.8062 73.1559 20.8938 73.4215 21.1701C73.6084 21.3472 73.7067 21.6019 73.7067 21.8684C73.7067 21.9963 73.687 22.1242 73.6388 22.2422C73.5887 22.3602 73.511 22.4674 73.4215 22.5559C73.333 22.6553 73.2258 22.7231 73.1077 22.7733C72.9789 22.8215 72.8609 22.851 72.7222 22.851Z" fill="black"/>
<path d="M19.3272 22.851C19.1994 22.851 19.0715 22.8215 18.9535 22.7723C18.8355 22.7221 18.7273 22.6543 18.6289 22.5549C18.4519 22.3779 18.3437 22.132 18.3437 21.8674C18.3437 21.7288 18.3732 21.6107 18.4224 21.4829C18.4715 21.3649 18.5404 21.2576 18.6289 21.1691C18.9043 20.8937 19.3469 20.8052 19.701 20.9518C19.8288 21.0009 19.937 21.0796 20.0255 21.1691C20.2026 21.355 20.3108 21.6009 20.3108 21.8674C20.3108 22.1232 20.2124 22.369 20.0255 22.5549C19.8387 22.7428 19.5928 22.851 19.3272 22.851Z" fill="black"/>
</svg>
