<svg width="79" height="43" viewBox="0 0 79 43" fill="none" xmlns="http://www.w3.org/2000/svg">
<path d="M77.4583 21.5V31.125H71.375H70.375V32.125C70.375 34.6777 69.361 37.1259 67.5559 38.9309C65.7509 40.7359 63.3027 41.75 60.75 41.75C58.1973 41.75 55.7491 40.7359 53.9441 38.9309C52.1391 37.1259 51.125 34.6777 51.125 32.125V31.125H50.125H28.875H27.875V32.125C27.875 34.6777 26.8609 37.1259 25.0559 38.9309C23.2509 40.7359 20.8027 41.75 18.25 41.75C15.6973 41.75 13.2491 40.7359 11.4441 38.9309C9.63906 37.1259 8.625 34.6777 8.625 32.125V31.125H7.625H1.54167V7.33333C1.54167 3.95437 4.24604 1.25 7.625 1.25H53.1667L63.4917 15.0167L63.7917 15.4167H64.2917H71.375C74.754 15.4167 77.4583 18.121 77.4583 21.5ZM5.85417 4.5625H4.85417V5.5625V14.4167V15.4167H5.85417H34.1875H35.1875V14.4167V5.5625V4.5625H34.1875H5.85417ZM39.5 4.5625H38.5V5.5625V14.4167V15.4167H39.5H57.7042H59.7138L58.5019 13.8136L51.8081 4.95944L51.508 4.5625H51.0104H39.5ZM18.25 25.8125C16.5758 25.8125 14.9702 26.4776 13.7864 27.6614C12.6026 28.8452 11.9375 30.4508 11.9375 32.125C11.9375 33.7992 12.6026 35.4048 13.7864 36.5886C14.9702 37.7724 16.5758 38.4375 18.25 38.4375C19.9242 38.4375 21.5298 37.7724 22.7136 36.5886C23.8974 35.4048 24.5625 33.7992 24.5625 32.125C24.5625 30.4508 23.8974 28.8452 22.7136 27.6614C21.5298 26.4776 19.9242 25.8125 18.25 25.8125ZM60.75 25.8125C59.0758 25.8125 57.4702 26.4776 56.2864 27.6614C55.1026 28.8452 54.4375 30.4508 54.4375 32.125C54.4375 33.7992 55.1026 35.4048 56.2864 36.5886C57.4702 37.7724 59.0758 38.4375 60.75 38.4375C62.4242 38.4375 64.0298 37.7724 65.2136 36.5886C66.3974 35.4048 67.0625 33.7992 67.0625 32.125C67.0625 30.4508 66.3974 28.8452 65.2136 27.6614C64.0298 26.4776 62.4242 25.8125 60.75 25.8125Z" stroke="#38B6FF" stroke-width="2"/>
</svg>
