<svg width="10" height="9" viewBox="0 0 10 9" fill="none" xmlns="http://www.w3.org/2000/svg">
<path d="M2 7.5V8C2 8.14167 1.952 8.2605 1.856 8.3565C1.76 8.4525 1.64134 8.50033 1.5 8.5H1C0.858335 8.5 0.739502 8.452 0.643502 8.356C0.547502 8.26 0.499668 8.14133 0.500002 8V4L1.55 1C1.6 0.85 1.6895 0.729167 1.8185 0.6375C1.9475 0.545833 2.09134 0.5 2.25 0.5H7.75C7.90834 0.5 8.05217 0.545833 8.1815 0.6375C8.31084 0.729167 8.40033 0.85 8.45 1L9.5 4V8C9.5 8.14167 9.45217 8.2605 9.3565 8.3565C9.26083 8.4525 9.142 8.50033 9 8.5H8.5C8.35834 8.5 8.2395 8.452 8.1435 8.356C8.0475 8.26 7.99967 8.14133 8 8V7.5H2ZM1.9 3H8.1L7.575 1.5H2.425L1.9 3ZM2.75 6C2.95833 6 3.1355 5.927 3.2815 5.781C3.4275 5.635 3.50033 5.458 3.5 5.25C3.5 5.04167 3.427 4.8645 3.281 4.7185C3.135 4.5725 2.958 4.49967 2.75 4.5C2.54167 4.5 2.3645 4.573 2.2185 4.719C2.0725 4.865 1.99967 5.042 2 5.25C2 5.45833 2.073 5.6355 2.219 5.7815C2.365 5.9275 2.542 6.00033 2.75 6ZM7.25 6C7.45834 6 7.6355 5.927 7.7815 5.781C7.9275 5.635 8.00034 5.458 8 5.25C8 5.04167 7.927 4.8645 7.781 4.7185C7.635 4.5725 7.458 4.49967 7.25 4.5C7.04167 4.5 6.8645 4.573 6.7185 4.719C6.5725 4.865 6.49967 5.042 6.5 5.25C6.5 5.45833 6.573 5.6355 6.719 5.7815C6.865 5.9275 7.042 6.00033 7.25 6ZM1.5 6.5H8.5V4H1.5V6.5Z" fill="black"/>
</svg>
