<svg width="15" height="13" viewBox="0 0 15 13" fill="none" xmlns="http://www.w3.org/2000/svg">
<path d="M14.7817 2.22059C14.7123 2.15045 14.6297 2.09482 14.5387 2.05695C14.4477 2.01908 14.3501 1.99972 14.2515 2H13.7222V0.75C13.722 0.551156 13.6431 0.36052 13.5028 0.219917C13.3624 0.0793127 13.1722 0.000223323 12.9737 0H2.20264C1.61846 8.2878e-06 1.05822 0.232543 0.645146 0.646452C0.232074 1.06036 8.27106e-06 1.62174 0 2.20709V10.7929C8.27106e-06 11.3783 0.232074 11.9396 0.645146 12.3535C1.05822 12.7675 1.61846 13 2.20264 13H14.2221C14.42 12.9996 14.6098 12.9208 14.75 12.7808C14.8903 12.6407 14.9695 12.4508 14.9705 12.2524L15 2.75256C15.0006 2.65382 14.9816 2.55594 14.9442 2.46462C14.9067 2.37329 14.8515 2.29034 14.7817 2.22059ZM13.9734 12H2.20264C1.88314 12 1.57673 11.8728 1.35082 11.6465C1.1249 11.4201 0.99798 11.113 0.99798 10.7929V2.20709C0.99798 1.88695 1.1249 1.57992 1.35082 1.35355C1.57673 1.12718 1.88314 1 2.20264 1H12.7242V2H2.24546V3H14.0013L13.9734 12Z" fill="#333333"/>
</svg>
